<?xml version="1.0" encoding="utf-8"?>
<!-- Generator: Adobe Illustrator 26.2.1, SVG Export Plug-In . SVG Version: 6.00 Build 0)  -->
<svg version="1.1" id="Layer_1" xmlns="http://www.w3.org/2000/svg" xmlns:xlink="http://www.w3.org/1999/xlink" x="0px" y="0px"
	 viewBox="0 0 203.43 91.58" style="enable-background:new 0 0 203.43 91.58;" xml:space="preserve">
<style type="text/css">
	.st0{fill-rule:evenodd;clip-rule:evenodd;fill:#FBD0AF;}
	.st1{fill-rule:evenodd;clip-rule:evenodd;fill:#7E7F81;}
	.st2{fill-rule:evenodd;clip-rule:evenodd;fill:#F69221;}
	.st3{fill-rule:evenodd;clip-rule:evenodd;fill:#7E8080;}
	.st4{fill-rule:evenodd;clip-rule:evenodd;fill:#7F8183;}
	.st5{fill-rule:evenodd;clip-rule:evenodd;fill:#ED9039;}
	.st6{fill-rule:evenodd;clip-rule:evenodd;fill:#ED9139;}
	.st7{fill-rule:evenodd;clip-rule:evenodd;fill:#E99643;}
</style>
<g>
	<path class="st0" d="M46.44,49.99c0-1.43,1.1-1.93,1.88-2.62l6.14-5.15c0.61-0.51,0.84-0.87,1.34-0.76
		c0.26,2.06-1.86,6.02-2.85,7.35c-1.14,1.54-2.35,2.71-3.84,3.78c-0.55,0.4-0.97,0.6-1.53,0.99c-0.1,0.55,0.05,1.08-0.5,1.14
		c-0.57,0.06-0.64-0.38-0.64-0.86L46.44,49.99L46.44,49.99z M32.66,59.77l0.03-0.28c-0.74-0.01-0.61,0-0.74-0.28
		c0,0,0.1-0.44,0.56-0.27c0.33,0.12,0.25,0.18,0.2,0.5c0.42-0.32,0.05,0.13,0.17-0.25c0.13-0.44-0.02-0.1,0.01-0.51
		c0.03-0.43,0.15,0.35,0.03-0.33l-0.37,0.34c-0.79,0.36-0.79-0.72-0.81-0.99c-0.41-0.26-1.01-0.45-1.51-0.72
		c-0.44-0.24-0.97-0.55-1.37-0.79c-0.89-0.54-1.88-1.32-2.53-1.89c-2.46-2.18-4.25-4.66-5.48-7.78c-0.45-1.14-0.72-2.11-1.02-3.41
		c-0.42-1.82-0.48-4.26-0.26-6.18c0.1-0.86-0.04-1.34,0.93-1.26c0.48,0.84,0.01,1.55,0.03,3.59c0.04,3.63,0.94,6.47,2.63,9.55
		c1.62,2.95,5.42,6.53,8.51,7.65c0.35-0.49,0-0.89,1.03-0.69c0.02-0.63,0.22-0.1,0.14-0.48c0-0.01-0.02-0.05-0.02-0.06
		c0-0.01-0.01-0.05-0.03-0.07c-0.48,0-0.79,0.09-1.13-0.19c0.21-0.29,0.01-0.14,0.43-0.23c-0.4-0.53-0.3-0.39-0.33-1.21
		c-1.3-0.58-3.11-2.11-3.98-3.04c-0.4-0.42-2.86-3.36-2.79-4.16c-0.64-0.5-1.6-4.03-1.48-4.88c0.57-0.1,1.75,1.09,2.42,1.67
		c0.45,0.39,0.77,0.65,1.13,0.95c0.25,0.21,0.36,0.3,0.56,0.47l0.44,0.45c0.01-0.01,0.03,0.04,0.05,0.07
		c0.27,0.06,0.56,0.39,0.78,0.57c0.49,0.41,1.96,1.73,2.34,1.88c-0.04-1-0.3-0.06-0.7-1.07l0.83,0.36c0.41,0.38-0.19,0.1,0.49,0.3
		v-0.85c0.39,0,0.07,0.06,0-0.24c0.3,0.09,0.23-0.1,0.28-0.42c-0.46,0.2-0.46-0.12-0.47-0.66c0.33,0.36,0.37,0.3,0.52,0.59
		c0.05,0.1,0.09,0.19,0.13,0.26l0.56-0.04c-0.21-0.34-1.39-1.25-1.71-1.53l-8.49-7.15c-0.55-0.48-1.1-0.9-1.69-1.41
		c-0.55-0.48-1.47-0.88-0.68-1.81c0.62-0.09,0.88,0.3,1.24,0.6l13.14,11.03c0.52,0.42,1.55,1.19,1.79,1.88
		c0.22,0.61,0.09,26.55,0.09,29.57v13.08c-0.05,0.53-0.55,0.85-1,0.52c-0.44-0.32-0.25-2.8-0.25-3.54V49.99
		c0-1.25,0.22-2.45-0.79-2.9c0.14,0.52-0.14,0.31,0.03,0.75c0.09,0.23,0.24,0.26,0.49,0.27l0.61,42.77c0.3,0.19,0.09-0.1,0.24,0.23
		c-0.45,0.36-0.4,0.03-0.85-0.1c-0.2,0.34-0.16,0.18-1.32,0.19c-0.35,0-0.48,0-0.74-0.06c-0.68-0.15-0.04,0.16-1.32-0.01
		c-0.3-0.04-0.56-0.03-0.86,0c-0.71,0.06,0.12-0.02-0.55-0.09c-0.2-0.02-0.28,0.04-0.31,0.06l-0.2,0.16
		c-0.56,0.46,0.38-0.16-0.14,0.13l-0.06-0.27c-0.24,0.18-0.2,0.1-0.27,0.46h20.73c-0.07-0.34-0.43-0.81-0.56-1.01l-2.44-0.02
		c-0.02,0-0.05-0.01-0.07-0.01l-0.17-0.08c-0.14-0.08-0.13,0.06-0.27-0.25c-0.14-0.3-0.05-24.53-0.05-26.77
		c0-1.13-0.24-2.8,0.24-3.69c0.77-0.08,0.7,0.09,0.9,0.39l0.08,0.11c0.58-0.18,2.77-1.04,3.21-1.61c0.52,0.06,3.17-2.09,3.67-2.53
		c0.51-0.44,0.99-0.91,1.58-1.52c0.29-0.3,0.45-0.5,0.75-0.86l0.72-0.79c0.2-0.5,0.78-1.13,1.09-1.63c0.22-0.36,0.76-1.45,1.05-1.66
		c0-0.43,0.53-1.08,0.67-1.68c-0.49,0.3-0.31,0.31-0.32,0.32c-0.1-0.09-0.66,0.23,0.02-0.76c0,0,0.1-0.15,0.11-0.18
		c0.3-0.47,0.24-0.42,0.24-1.13c-0.55,0.1-0.34,0.18-0.94,0.19l0.28-0.66c-0.48-0.06-0.26,0.11-0.28-0.47
		c0.4,0.1,0.34-0.19,0.34-0.19c0.1-0.32-0.1-0.59-0.27-0.81l-0.26-0.32c0.21-0.38,0.32-0.91,0.23-1.29
		c-0.2,0.27-0.59,2.18-0.74,2.65c-0.3,0.9-0.56,1.55-0.97,2.44c-1.34,2.89-3.43,5.46-6.03,7.42c-0.9,0.68-3.16,2.18-4.24,2.45
		c-0.1,0.76,0.09,1.16-0.86,1.09c-0.25-0.32-0.76-3.14,0.37-3.02c0.6,0.06,0.41,0.95,0.53,0.64c0-0.01,0.02,0.05,0.04,0.07
		c0.89-0.29,1.8-0.92,2.62-1.44c5.05-3.24,8.3-9.32,8.43-15.52c0.01-0.75-0.34-3.27-0.07-3.63c0.08-0.74,0.02-0.25-0.12-0.36
		c-0.34,0.34-0.78,0.69-1.15,0.99l-7.74,6.5c-1.26,1.07-3,2.52-4.4,3.68c-1.07,0.89-1.23,0.92-1.23,2.8v36.42
		c0,1.24,0.1,2.87,0,4.05c-0.06,0.71-0.69,1-1.11,0.51c-0.26-0.3-0.17-1.35-0.17-1.84V48.1c0-1.38,0.88-1.77,1.64-2.43l6.62-5.55
		c-0.03-0.25,0.06-0.15-0.15-0.3c0,0,0.31,0.1-0.57,0.1c0,0.15,0.03,0.27-0.06,0.39c0,0,0,0.27-0.31,0c0.1,0.08-0.2,0.2,0.13,0.03
		c0.23-0.12,0,0.07,0.15-0.22c-0.19-0.37,0.18-0.24-0.47-0.28l0.39-0.19c-0.27,0-0.29-0.12-0.57-0.38
		c-0.04,0.38,0.04,0.28-0.38,0.38c-0.08-0.07-0.42-0.5-0.77-0.32c-0.32,0.16-0.24,0.33-0.8,0.48c-0.45,0.2-0.85,0.68-1.34,1.01
		l-0.25-0.26c-0.21,0.99-2.39,2.43-3.44,3.3c-1.76,1.46-2.28,1.44-2.28,4.63c0,6.14,0.17,40.77-0.06,41.66
		c-0.01,0.04-0.04,0.05-0.06,0.06c-0.01,0.01-0.04,0.04-0.05,0.06c-0.18,0.16-0.27,0.27-0.54,0.26c-0.86-0.01-0.56-1.27-0.56-3.26
		V49.33c0-4.03,0.18-3.56-3.67-6.69c-0.36-0.29-0.58-0.49-0.92-0.78l-1-0.84c-0.13,0.16,0.14,0.21-0.24,0.02l-0.73-0.6
		c-0.27-0.21-0.75-0.59-0.97-0.81l0.35-0.25c-0.74,0.19-0.91-0.2-1.34-0.55c-0.37-0.3-0.61-0.53-1.01-0.89l-0.97-0.76
		c0.02-0.02,0.11-0.09,0.13-0.11l0.11-0.11c-0.75,0.01-0.92-0.35-1.41-0.74c-0.38-0.3-0.98-0.55-0.68-1.3
		c-0.21,0.17-0.08,0.04-0.21,0.27c-0.02,0.03-0.06,0.17-0.08,0.21l-0.86-0.66c0.02-0.02,0.04-0.06,0.05-0.08l0.16-0.22
		c-0.69,0.03-0.92-0.34-1.37-0.7c-0.41-0.34-0.87-0.46-0.73-1.26c-0.14,0.12-0.19,0.32-0.2,0.49c-0.17-0.2-0.7-0.6-0.97-0.81
		c0.4-0.1,0.2-0.05,0.35-0.21c-0.76,0.16-1.01-0.32-1.45-0.68c-0.43-0.36-0.85-0.51-0.78-1.25l-0.2,0.42l-0.76-0.8
		c0.01-0.01,0.04-0.04,0.05-0.05l0.1-0.1l-0.73,0c-2.73,6.08-2.78,13.52,0.14,19.4c1.41,2.83,3.06,5.02,5.04,6.81
		c1.59,1.44,5.3,4.11,7.42,4.57c0.01-0.02,0.03-0.09,0.04-0.08l0.08-0.14C32.01,59.68,32.1,59.7,32.66,59.77z"/>
	<path class="st1" d="M147.89,69.38c0.14-0.63,1.79-5.34,2.02-5.68c0.32,0.4,0.87,2.18,1.12,2.86c0.31,0.87,0.77,1.92,1.02,2.81
		L147.89,69.38z M162.62,67.77c-0.03-1.14-0.12-3.45,0-4.5c0.15-1.24,2.01-1.26,3.16-1.03c3.32,0.64,2.7,5.03,0.9,4.94
		c0.08-0.41,0.19-0.68-0.04-1.02c-0.59,0.28-0.26,1.09-1.44,1.4C164.46,67.75,163.41,67.81,162.62,67.77z M148.71,74.28
		c-0.88-0.46-2.4,0.01-2-1.61c0.23-0.96,0.71-1.95,0.98-2.87h4.48c0.29,0.44,0.89,2.44,1.04,3.05c0.41,1.69-1.89,0.83-2.38,1.52
		c0.17,0.23,0.19,0.24,0.59,0.26c0.29,0.01,0.64,0,0.94,0l9.31,0.01c0.63,0,1.26,0,1.88,0c1.02,0,1.4,0.17,1.64-0.28
		c-0.33-0.59-0.71-0.03-1.65-0.55c-0.43-0.24-0.81-0.61-0.9-1.26c-0.15-1.06-0.03-3.17-0.02-4.33l1.97,0
		c0.26,0.31,2.99,5.17,3.13,5.63c0.36,0.29,0.35,0.78,0.98,0.69c0.64-0.2,1.94,0.27,2.49-0.17c-0.04-0.43,0.02-0.12-0.12-0.5
		c-0.34-0.37-0.78-0.11-1.35-1.08c-0.45-0.77-2.65-4.38-2.67-4.68c4.15-0.11,4.95-4.51,1.6-6.02c-1.78-0.8-5.91-0.54-8.31-0.54
		c-0.81,0-2.18-0.2-2.59,0.31c0.32,0.79,2.59-0.4,2.66,1.77c0.04,1.18,0.08,8.61-0.1,9.28c-0.32,1.14-2.05,1.45-3.34,1.06
		c-1.42-0.43-1.47-1.34-1.98-2.72c-0.42-1.13-0.83-2.25-1.24-3.38l-2.49-6.79c-0.54,0.04-0.44,0.16-0.72,0.46
		c-0.71,0.79-1.78,0.48-2.05,1.06c0.22,0.23,0.64,0.32,0.94,0.46c0.09,0.65-0.79,2.58-1.06,3.27c-0.6,1.57-1.77,4.81-2.36,6.11
		c-0.45,0.99-1.21,1.65-2.59,1.64c-1.52,0-2.18-0.66-2.2-2.17c-0.01-1.19-0.07-7.78,0.04-8.47c0.26-1.66,2.13-1.01,2.7-1.51
		c-0.17-0.59-1.01-0.4-1.67-0.4c-0.69,0-1.38,0-2.07,0s-1.38,0-2.07,0c-0.57,0-1.49-0.18-1.82,0.3c0.43,0.64,2.13,0.02,2.73,1.44
		c0.25,0.59,0.17,3.17,0.14,3.92l-6.64-0.04c-0.03-0.76-0.09-3.44,0.05-4.01c0.38-1.51,2.24-0.52,2.69-1.32
		c-0.25-0.47-1.05-0.31-1.75-0.31c-1.27,0-5.3-0.17-5.81,0.21c0.29,0.89,2.57-0.15,2.75,1.81c0.07,0.83,0.06,8.43-0.05,9.01
		c-0.37,2-2.28,1.12-2.73,1.79c0.18,0.28,0.29,0.27,0.76,0.27c1.3,0,6.21,0.13,6.76-0.1c-0.13-1.09-2.39,0.43-2.64-2.1
		c-0.11-1.16-0.08-3.42-0.01-4.64h6.67c-0.16,1.43,0.07,3.21-0.04,4.69c-0.17,2.26-2.05,1-2.8,1.88c0.26,0.46,2.4,0.27,2.99,0.27
		l8.09,0.01C148.05,74.65,148.5,74.81,148.71,74.28z"/>
	<path class="st0" d="M31.23,47.48c0.04,0.14,1.07,1.02,1.2,1.17c0.5,0.57,0.42,1.09,0.42,1.99c0,0.81,0,1.63,0,2.45
		c0,1.07,0.27,1.49-0.77,1.65c-0.42,0.1-0.21-0.06-0.43,0.23c0.33,0.28,0.66,0.19,1.13,0.19c0.01,0.02,0.02,0.05,0.03,0.07
		c0,0.01,0.02,0.05,0.02,0.06c0.08,0.37-0.12-0.16-0.14,0.48c0.03,0.18,0.1,0.09,0.15,0.44c0.03,0.2,0.01,0.53,0.01,0.75
		c0,0.46-0.04,0.98,0.05,1.39c0.12,0.69,0-0.1-0.03,0.33c-0.03,0.42,0.12,0.07-0.01,0.51c-0.11,0.39,0.25-0.07-0.17,0.25
		c0.06-0.32,0.13-0.38-0.2-0.5c-0.46-0.18-0.56,0.27-0.56,0.27c0.13,0.29,0,0.27,0.74,0.28l-0.03,0.28c0.37,0.79,0.2,2.62,0.2,3.68
		v25.5c0,0.79,0.13,1.1-0.28,1.6l-2.79,0.02c-0.17,0.28-0.21,0.19-0.26,0.56l0.06,0.27c0.52-0.29-0.41,0.33,0.14-0.13l0.2-0.16
		c0.03-0.01,0.11-0.08,0.31-0.06c0.68,0.07-0.16,0.14,0.55,0.09c0.3-0.02,0.56-0.03,0.86,0c1.28,0.18,0.64-0.14,1.32,0.01
		c0.26,0.06,0.4,0.06,0.74,0.06c1.17-0.01,1.12,0.15,1.32-0.19c0.45,0.12,0.4,0.46,0.85,0.1c-0.15-0.33,0.06-0.04-0.24-0.23
		l-0.61-42.77c-0.25-0.02-0.41-0.04-0.49-0.27c-0.17-0.44,0.11-0.23-0.03-0.75c-0.16-0.29-1.36-1.3-1.64-1.38l-0.56,0.04
		c-0.04-0.07-0.08-0.17-0.13-0.26c-0.16-0.29-0.2-0.23-0.52-0.59c0.01,0.53,0.01,0.85,0.47,0.66c-0.05,0.32,0.02,0.51-0.28,0.42
		c0.07,0.3,0.39,0.24,0,0.24v0.85c-0.67-0.2-0.07,0.09-0.49-0.3l-0.83-0.36C30.93,47.43,31.19,46.48,31.23,47.48z"/>
	<path class="st2" d="M28.09,19.55l-4.19,3.17c-0.09,0.36-0.74,0.8-1.13,1.25c-0.79,0.92-2.77,3.45-3.08,4.47
		c0.21,0.25,0.82,0.85,0.1,1.07l-0.1,0.1c-0.01,0.01-0.04,0.04-0.05,0.05l0.76,0.8l0.2-0.42c0.37-0.51,0.57-0.23,0.99-0.03
		c0.47-0.73,0.84-1.51,1.34-2.22c6.44-9.2,18.58-11.56,27.72-5.54c2.47,1.62,5.79,4.91,6.86,7.63c0.49-0.1,0.68-0.28,0.91,0.15
		c0.15,0.16,0.01,0,0.12,0.2c0.09,0.16-0.01,0.06,0.11,0.23c0.2-0.24,0.61-0.52,0.9-0.74c-0.34-0.15-0.16-0.04-0.31-0.21
		c-0.84-0.27,0.01-0.89,0.22-1.16c-0.18-0.61-0.99-1.69-1.37-2.27c-0.24-0.37-0.49-0.69-0.77-1.02l-0.64-0.77
		c-0.01-0.02-0.06-0.09-0.07-0.11c-0.09-0.16-0.03-0.02-0.08-0.18c-0.2-0.13-0.2-0.14-0.38-0.31c-0.1-0.1-0.19-0.18-0.29-0.28
		c-0.21-0.2-0.4-0.35-0.55-0.71l0.03,0.06c-0.26-0.1-1.71-1.4-2.27-1.82l-2.43-1.66c-0.23-0.02-0.03,0.02-0.26-0.07
		c-0.1-0.04-0.21-0.1-0.31-0.15c-5.27-2.74-11.24-3.3-16.99-1.61c-0.96,0.28-1.88,0.64-2.62,0.96L28.09,19.55z"/>
	<path class="st1" d="M195.2,63.67l2.08,5.7h-4.17c0.3-1.1,1.25-3.56,1.71-4.94c0.13-0.38,0.09-0.39,0.32-0.69
		C195.15,63.71,195.18,63.69,195.2,63.67z M182.6,65.36l0.53,0.08l1.35-2.88c0.22,2.2,0.07,5.03,0.07,7.29
		c0,0.92,0.11,2.65-0.24,3.36c-0.54,1.11-1.79,0.59-2.63,1.02c0.12,0.57,0.56,0.39,1.15,0.39c0.53,0,1.07,0,1.6,0
		c1.58,0,8.87,0.1,9.42-0.07c0-0.71-0.63-0.41-1.29-0.59c-0.63-0.17-0.79-0.58-0.64-1.24c0.15-0.67,0.74-2.31,1.04-2.91l4.44-0.01
		c0.17,0.26,0.92,2.55,1.03,3c0.42,1.72-1.78,0.88-2.38,1.56c0.26,0.4,1.04,0.26,1.56,0.26c1.25,0,5.15,0.14,5.83-0.1V74.2
		c-1.56-0.54-2.07,0.19-2.91-2.1l-2.69-7.38c-0.25-0.68-1.09-3.35-1.45-3.65c-0.59,0.14-0.68,0.89-1.99,1.14
		c-0.45,0.09-0.51,0.03-0.68,0.38c0.22,0.26,0.05,0.12,0.42,0.25c0.23,0.09,0.36,0.14,0.51,0.24c0.1,0.63-1.86,5.35-2.21,6.2
		c-0.83,2.05-1.12,4.68-3.68,4.79c-1.62,0.07-2.13-0.49-2.17-2.08l0-8.48c0.05-0.65,0.45-0.93,1.01-1.15
		c0.54-0.21,1.37-0.12,1.74-0.44c-0.13-0.62-0.94-0.4-2.18-0.4c-3.21,0-2.58-0.5-3.63,1.85C183.22,64.07,182.89,64.69,182.6,65.36z"
		/>
	<path class="st2" d="M29.72,22.78c0.03,0,0.2,0.03,0.24,0.06c0.28,0.16,0.03-0.09,0.19,0.24c-0.15,0.34,0.05,0.08-0.22,0.2
		c-0.02,0.01-0.05,0-0.07,0.01c-0.33,0.13-0.11-0.38-0.46,0.44c0.73-0.01,1.23-0.57,1.24-0.59c0.01-0.05,0.05-0.05,0.08-0.07
		c-0.02,0.57,0.02,0.24-0.25,0.67l-0.12,0.17l0.4,0.16c0.25,0.19,0.04-0.12,0.21,0.31l0.89-0.28c-0.29,0.51-0.15,0.1-0.13,0.49
		c0.21-0.06,2-0.89,3.14-1.26c3.52-1.15,7.84-0.79,11.04,0.55c3.63,1.51,7.23,4.76,8.71,8.42c0.47-0.07,0.55-0.19,0.82,0.17
		l0.18,0.24c0.01,0.01,0.03,0.04,0.05,0.06l0.1,0.1c0.25-0.17,0.7-0.68,0.89-0.71c-0.5-0.05-0.31,0.01-0.49-0.25
		c-0.68-0.4,0.32-1.06,0.55-1.2c-0.25-1.38-3.08-4.72-4.31-5.79c-1.89-1.65-3.51-2.68-6.3-3.77C40.64,19.04,33.92,20.12,29.72,22.78
		z"/>
	<path class="st2" d="M28.76,36.97l-0.11,0.11c-0.02,0.02-0.11,0.09-0.13,0.11l0.97,0.76l0.08-0.59c0.52-0.24,0.44-0.15,0.96,0
		c0.65-2.43,1.49-3.94,2.99-5.19c3.65-3.06,8.27-3.07,12.06-0.12c1.18,0.91,2.02,2.2,2.61,3.58c0.23,0.53,0.31,1.09,0.52,1.58
		l0.61-0.03c0.3,0.08,0.45,0.1,0.8,0.03l-0.14-0.37c0.04-0.82,0.3-0.86,0.83-1.21c-0.04-0.97-1.15-2.71-1.6-3.35
		c-3.77-5.34-11.28-6.66-16.91-2.38c-1.44,1.09-3.88,4.25-3.88,5.79C28.56,35.84,29.7,36.72,28.76,36.97z"/>
	<path class="st0" d="M59.25,29.51c0.15,0.17-0.02,0.07,0.31,0.21c-0.3,0.22-0.7,0.5-0.9,0.74c-0.12-0.17-0.02-0.07-0.11-0.23
		c-0.11-0.2,0.02-0.04-0.12-0.2c0,0.88-0.34,0.89-0.82,1.29c-0.4,0.33-0.78,0.83-1.45,0.59c0.18,0.26-0.01,0.2,0.49,0.25
		c-0.19,0.04-0.64,0.54-0.89,0.71l-0.1-0.1c-0.01-0.01-0.03-0.04-0.05-0.06l-0.18-0.24c0.15,0.72-0.42,0.96-0.84,1.29
		c-0.4,0.31-0.59,0.68-1.25,0.72c0.12,0.15,0,0,0.14,0.16c0.01,0.01,0.04,0.07,0.05,0.05c0.01-0.01,0.04,0.03,0.05,0.05
		c-0.76,0.44-0.83,0.91-1.01,0.61c-0.43,0.3-0.6,0.59-1.08,0.95c-0.23,0.18-0.29,0.22-0.53,0.41c-0.2,0.16-0.33,0.24-0.69,0.23
		l0.38,0.22c-0.18,0.13-0.37,0.29-0.58,0.45c-0.07,0.06-0.27,0.22-0.32,0.26c-0.3,0.17-0.1,0.19-0.2-0.02
		c-0.02,0.02-0.05,0.04-0.06,0.06l-1.01,0.83c-0.37,0.27-0.58,0.46-0.99,0.72c0.07,0.14,0.04,0.15,0.1,0.3
		c0.56-0.15,0.48-0.32,0.8-0.48c0.35-0.18,0.69,0.25,0.77,0.32c0.42-0.1,0.33,0,0.38-0.38c0.28,0.26,0.3,0.38,0.57,0.38l-0.38,0.19
		c0.65,0.04,0.28-0.09,0.47,0.28c-0.14,0.29,0.08,0.1-0.15,0.22c-0.33,0.17-0.03,0.05-0.13-0.03c0.32,0.28,0.31,0,0.31,0
		c0.1-0.12,0.06-0.23,0.06-0.39c0.88,0,0.57-0.1,0.57-0.1c0.21,0.15,0.12,0.05,0.15,0.3l6.78-5.7c0.34-0.29,0.61-0.65,1.17-0.6
		c0.91,0.68,0.02,1.33-0.43,1.64c0.14,0.1,0.2-0.38,0.12,0.36c1.16-1.13,1.14,2.18,1.15,2.78c0.01,0.69,0.02,1.42-0.05,2.11
		c-0.06,0.58-0.24,1.49-0.18,1.97c0.09,0.38-0.02,0.91-0.23,1.29l0.26,0.32c0.17,0.23,0.38,0.5,0.27,0.81c0,0,0.06,0.29-0.34,0.19
		c0.02,0.59-0.2,0.41,0.28,0.47l-0.28,0.66c0.6-0.01,0.4-0.09,0.94-0.19c0,0.71,0.05,0.66-0.24,1.13c-0.02,0.03-0.11,0.18-0.11,0.18
		c-0.67,0.99-0.11,0.67-0.02,0.76c0,0-0.18-0.01,0.32-0.32c0.31-0.33,0.8-2.08,1.03-2.84c0.36-1.19,0.45-2.09,0.68-3.39
		c0.08-1.82,0.22-3.17,0-5.03c-0.05-1.42-0.68-3.81-1.19-5.25l-0.05-0.14c-0.08-0.21-0.01-0.02-0.09-0.2
		c-0.22-0.56-0.57-1.19-0.69-1.68L59.25,29.51z"/>
	<path class="st2" d="M25.73,34.46l-0.16,0.22c-0.01,0.02-0.03,0.05-0.05,0.08l0.86,0.66c0.02-0.04,0.06-0.18,0.08-0.21
		c0.13-0.23,0-0.1,0.21-0.27c0.06-0.38,0.59-0.14,0.83-0.1c0.44-1.8,2.1-3.9,3.07-4.85c1.34-1.3,2.75-2.28,4.95-3.06
		c3.66-1.29,7.85-0.7,11.08,1.41c0.43,0.28,0.86,0.67,1.28,0.86c0.09-0.23,0.08-0.17,0.12-0.32l0.09-0.35
		c0.01-0.03,0.01-0.07,0.03-0.1c0.33,0.16,0.17-0.23,0.19,0.2l-0.04,0.17c-0.01,0.03-0.12,0.17-0.15,0.19l0.56-0.28
		c-0.08-0.1-0.17-0.18-0.17-0.19l-0.2-0.29c0.41,0.13,0.39,0.08,0.56,0c-0.12-0.23-0.3-0.17-0.38-0.47
		c0.03-0.01,0.08-0.06,0.09-0.03c0.01,0.03,0.07-0.02,0.09-0.02c0.29,0.05-0.08-0.2,0.18,0.07c0.36,0.38-0.24-0.04,0.17,0.33
		c0.19,0.18,0.02,0.13,0.4,0.09l0.49-0.17c-0.19-0.3,0.1-0.13-0.55-0.18c-0.32-0.02,0.13-0.03-0.3-0.01
		c0.02-0.47-0.07-0.19,0.14-0.52c0.11,0.08,0.14,0.17,0.44,0.18c-0.15-0.25-0.09-0.17-0.33-0.38l-0.97-0.72
		c-0.44-0.29-0.93-0.61-1.46-0.89c-5.79-3.08-12.87-2.18-17.62,2.19c-1.16,1.07-3.71,4.1-3.81,5.51c0.21,0.19,0.53,0.4,0.61,0.63
		C26.17,34.22,26,34.47,25.73,34.46z"/>
	<path class="st2" d="M31.82,39.38l-0.35,0.25c0.22,0.22,0.7,0.6,0.97,0.81l0.73,0.6c0.37,0.19,0.11,0.14,0.24-0.02
		c-0.2-0.26-0.19-0.22-0.14-0.63c0.24-0.14,0.3-0.13,0.65-0.16c-0.06-0.72-0.18-3.05,0.55-3.53c0.52-0.34,0.8,0.01,0.95,0.35
		c0.24,0.01,0.23-0.13,0.4-0.41c0.16-0.26,0.22-0.33,0.43-0.59c-1.28-0.08-1.1-1.07,0.51-1.95c0.3-0.17,1.1-0.53,1.5-0.59
		c0.9-0.15,1.05,0.53,0.68,1.12l1.33,0c-0.61-0.9,0.12-1.71,2.12-0.55c1.78,1.04,1.84,1.94,0.56,1.98c0.27,0.34,0.46,0.88,0.82,1.05
		c0.28-0.67,1.03-0.94,1.41,0.57c0.29,1.11,0.03,1.67,0.13,2.57l0.63,0.05l0.03,0.25l0.25,0.26c0.49-0.34,0.89-0.82,1.34-1.01
		c-0.05-0.16-0.02-0.16-0.1-0.3c-0.31,0-0.53-0.11-0.51-0.5c0.02-0.38,0.25-0.43,0.5-0.65c0.25-0.23,0.26-0.27,0.2-0.68
		c-1.04-5.99-8.77-9.39-14.04-4.14c-0.59,0.59-1.3,1.62-1.7,2.72c-0.82,2.26-0.3,2.03-0.01,2.39
		C32.19,38.97,32.13,39.23,31.82,39.38z"/>
	<path class="st1" d="M102.49,71.53c-0.08-0.12-0.1-0.16-0.18-0.29l-5.24-8.21c-0.9-1.41-0.31-0.74-0.49-1.4
		c-0.48-0.2-3.23-0.08-4.17-0.08c-1.01,0-0.93,0.1-1.04,0.48c0.39,0.04,1.47,0.16,1.84,0.33c0.67,0.31,0.6,0.77,0.6,1.55
		c0,1.48,0,2.95,0,4.42c0,2.65,0.45,4.29-1.18,5.39c-0.96,0.65-1.39,0.01-1.34,0.81c0.24,0.08,5.27,0.3,5.73-0.09
		c-0.07-0.36-0.11-0.34-0.57-0.39c-0.66-0.07-1.36-0.16-1.76-0.88c-0.43-0.78-0.31-2.18-0.31-3.16c0-2.08-0.17-4.95,0.02-6.94
		l6.93,10.51c1.38,2.2,0.84,1.37,2.19,0.6c0.81-0.46,0.86-0.29,1.3-0.51c0.01-0.01,0.05-0.01,0.06-0.04s0.04-0.03,0.06-0.05
		c-0.26-0.38-0.32-0.17-0.73-0.35c-0.19-0.08-0.4-0.29-0.52-0.42c-0.49-0.5-0.34-0.8-0.34-1.68c0-1.23-0.12-7.07,0.15-7.81
		c0.62-1.71,1.97-0.84,2.35-1.51c-0.14-0.29-0.14-0.29-0.57-0.31c-0.21-0.01-0.54,0-0.76,0c-1.2,0.01-4.03-0.22-4.38,0.31
		c0.4,0.61,1.4-0.07,2.23,0.93c0.54,0.65,0.4,1.85,0.4,2.74c0,2.1,0.05,4.26-0.01,6.36L102.49,71.53z"/>
	<path class="st1" d="M67.12,75.74c0.6-0.47-0.09-1.19,1.79-1.02c0.82,0.07,1.68,0.31,2.53,0.33c1.79,0.04,3.28-0.73,4.05-1.63
		c0.91-1.08,1.46-2.51,0.55-4.12c-1.62-2.86-5.15-2.1-7.5-3.7c-1.41-0.96-1.58-2.35-0.02-3.39c1.8-1.2,4.79-0.18,5.97,1.4
		c0.61,0.82,0.59,1.5,1.17,1.51c0.16-0.57-0.97-2.83-1.33-3.69c-0.18-0.42-0.25-0.79-0.61-0.97c-0.69,0.4,0.1,1.33-1.77,0.91
		c-0.98-0.22-1.45-0.33-2.5-0.21c-3.63,0.41-5.37,4.26-2.81,6.18c1.76,1.32,6.83,1.7,7.65,3.73c1.35,3.32-4.34,5.38-7.91,1.04
		c-0.3-0.36-0.86-1.34-1.38-1.39C64.85,71.21,66.77,75.56,67.12,75.74z"/>
	<path class="st1" d="M119.96,67.46c-0.11-0.69-0.04-2.03-0.04-2.79c0-0.73-0.2-1.92,0.41-2.28c1.19-0.69,3.69-0.12,4.4,0.55
		c1.55,1.48,1.01,4.53-2.11,4.56C121.97,67.5,120.52,67.57,119.96,67.46z M121.8,74.05c-0.85-0.1-1.76-0.55-1.86-1.5
		c-0.1-0.9-0.08-3.52,0-4.44c2.28-0.3,3.96,0.46,6.13-0.74c1.58-0.88,2.41-2.61,0.9-4.32c-1.26-1.43-2.94-1.51-5.38-1.51l-5.17,0.02
		c-0.64,0-1.24-0.19-1.24,0.49c1.53,0.38,2.57-0.35,2.56,1.87c0,1.21,0.08,8.23-0.05,8.79c-0.12,0.54-0.61,0.98-0.99,1.18
		c-0.76,0.41-1.54-0.13-1.51,0.67c0.55,0.16,2.97,0.08,3.77,0.08c0.72,0,3.16,0.21,3.56-0.18C122.45,74.04,122.31,74.11,121.8,74.05
		z"/>
	<path class="st1" d="M91.29,62.03c-0.08-0.78-1.09-0.49-2.73-0.49c-1.3,0-2.49-0.22-2.62,0.4c0.58,0.41,2.59-0.11,2.59,2.25
		c0,1.6,0,3.2,0,4.8c0,1.58,0.28,3.23-0.67,4.19c-0.73,0.74-1.88,1.4-3.34,1.43c-1.46,0.03-2.74-0.67-3.21-1.66
		c-0.5-1.06-0.33-3.1-0.33-4.43c0-1.63,0-3.27,0-4.9c0-1.8,1.87-1.26,3.21-1.56c-0.05-0.46-0.16-0.51-0.69-0.54l-6.6,0.01
		c-0.41,0.02-0.56,0.06-0.53,0.46c0.5,0.28,1.62,0.05,2.18,0.45c0.56,0.4,0.41,1.41,0.41,2.11c0,1.72,0,3.45,0,5.18
		c0,2.08-0.15,2.93,1.1,4.09c1.84,1.69,5.82,1.7,7.82,0.13c1.26-0.99,1.23-1.98,1.23-3.93c0-1.72,0-3.45,0-5.18
		C89.11,62.69,89.41,62.45,91.29,62.03z"/>
	<path class="st3" d="M171.07,73.86c0.14,0.37,0.08,0.07,0.12,0.5c-0.56,0.44-1.86-0.03-2.49,0.17c0.11,0.06,0,0.03,0.23,0.08
		c0.1,0.02,0.16,0.02,0.27,0.02c1.39,0.06,7.93,0.04,8.29-0.07c-0.13-1.01-1.55,0.02-2.18-1.41c-0.41-0.96-0.31-2.13-0.31-3.21
		c0-2.31-0.06-4.7,0.01-7.01c0.02,0.02,0.04,0.05,0.05,0.06l0.59,1.25c0.65,1.51,3.45,8.61,3.81,8.88c0.53-0.22,0.3-0.47,1.03-1.21
		c0.83-0.84,1.04-0.47,1.22-1.04l-0.87-0.27c0.15-0.82,1.92-4.02,2.31-5.16l-0.53-0.08l-2.12,4.48c-0.51-0.6-3.48-8.19-3.86-8.31
		c-0.88,0-1.76,0.01-2.63,0.01c-1.3,0-2.07-0.2-2.12,0.49c0.64,0.54,2.52-0.69,2.54,1.88c0.01,1.36,0.15,8.07-0.21,8.87
		C173.47,74.39,171.99,74.04,171.07,73.86z"/>
	<path class="st4" d="M160.09,80.84c1.69-0.38,3.1,0.33,3.46,2.27c0.32,1.69,0.05,3.9-1.02,4.64c-0.62,0.43-1.66,0.61-2.51,0.38
		c-0.9-0.24-0.74-1.24-0.74-2.19c0-0.97,0-1.95,0-2.92C159.28,82,159.09,81.06,160.09,80.84z M162.42,80.67
		c-0.68-0.24-5.36-0.54-5.71-0.1c0.44,0.59,1.35-0.23,1.48,1.22l-0.01,5.46c-0.16,1.36-0.98,0.57-1.48,1.13
		c0.24,0.29,0.89,0.18,1.39,0.18c0.53,0,1.07,0,1.6,0c0.96,0,1.96,0.02,2.81-0.29C165.76,87.08,165.78,81.86,162.42,80.67z"/>
	<path class="st3" d="M96.35,80.7c-0.37-0.49-2.57-0.36-2.76-0.12c0.25,0.32,0.67,0.18,1.04,0.32c0.42,0.17,0.3,0.49,0.29,0.99
		c-0.01,1.07,0.08,4.35-0.09,5.14c-0.11,0.56-0.31,0.96-0.84,1.14c-0.33,0.11-0.33,0.04-0.48,0.22c0.14,0.17-0.13,0.09,0.32,0.18
		h1.41c0.41,0,1.36,0.16,1.63-0.18c-0.39-0.43-1.02-0.01-1.39-0.9c-0.33-0.8-0.24-5.3-0.2-6.22c0.49,0.71,4.73,7.13,5.22,7.57
		l1.23-1.01c-1.24-0.65-1.02,0.4-1.02-3.86c0-0.79-0.14-2.53,0.62-3.03c0.28-0.18,0.21-0.09,0.41-0.16c0.45-0.14,0.16,0.11,0.37-0.2
		c-0.23-0.26-3.1-0.3-3.36,0c0.37,0.57,1.55-0.33,1.57,2.26c0.01,1.13,0.09,2.77-0.03,3.85l-2.67-3.99
		C97.22,82.07,96.79,81.29,96.35,80.7z"/>
	<path class="st4" d="M90.6,86.12c0.46-0.03,0.34-0.21,0.33-0.74c-0.01-0.7,0.09-2.66-0.11-2.98c-0.51,0.2-0.01,1.1-0.85,1.47
		C89.5,84.07,88.38,84,87.79,84c0-1.83-0.49-3.5,1.72-3.24c1.94,0.23,2.38,1.58,3.05,1.89l-0.06-0.52l-1.03-2.27
		c-0.53,0.21-0.22,0.43-1.19,0.52c-1.17,0.11-4.71-0.2-5.06,0.19c0.43,0.57,1.35-0.26,1.48,1.22l-0.01,5.47
		c-0.16,1.38-1.04,0.59-1.48,1.13c0.25,0.34,1.2,0.18,1.66,0.18c1.09,0,3.69-0.2,4.23,0.39l0.38,0.46c0.27-0.28,1.51-2.89,1.51-3.38
		c-0.38,0.12-0.48,0.42-0.7,0.71c-0.64,0.88-1.56,1.43-2.78,1.46c-2.05,0.05-1.78-0.84-1.72-3.87
		C89.58,84.32,90.55,84.13,90.6,86.12z"/>
	<path class="st4" d="M197.58,80.68c-0.3-0.41-2.56-0.37-2.77-0.11c0.27,0.34,0.82,0.14,1.3,0.47c0.12,1.26,0.02,3.01,0.02,4.33
		c0,3.46-0.81,2.39-1.4,3.01c0.3,0.35,1.26,0.18,1.73,0.18c0.46,0,1.37,0.17,1.64-0.18c-0.45-0.47-0.99-0.01-1.36-0.84
		c-0.36-0.79-0.28-5.39-0.19-6.21c0.48,0.42,4.63,7.06,5.17,7.5l1.27-1.05c-1.36-0.35-1.05-0.15-1.05-3.82
		c0-4.09,0.93-2.67,1.4-3.39c-0.17-0.18-0.13-0.18-0.77-0.17c-0.75,0-2.34-0.14-2.6,0.17c0.51,0.63,1.52-0.34,1.59,2.26
		c0.03,1.26,0,2.56,0,3.82l-0.28-0.27c-0.08-0.1-0.09-0.14-0.15-0.23l-0.97-1.48c-0.45-0.68-0.88-1.29-1.32-1.97
		c-0.22-0.34-0.44-0.69-0.67-1.02C197.97,81.35,197.78,80.96,197.58,80.68z"/>
	<path class="st4" d="M111.52,80.41c-0.48,0-0.54-0.09-0.66,0.27c1.78,0.68,1.51-0.69,1.51,5.35c0,3.17-0.86,1.59-1.51,2.35
		c0.12,0.15-0.03,0.1,0.29,0.17c0.09,0.02,0.36,0.01,0.46,0.01c0.94,0,3.82-0.06,4.48,0.07c0.74,0.14,0.69,0.27,0.95,0.79
		c0.37-0.18,1.06-1.9,1.36-2.55c0.31-0.67,0.34-0.59,0.18-0.84c-0.52,0.24-1.07,2.15-3.48,2.17c-1.06,0.01-1.57-0.12-1.64-1.19
		c-0.06-0.83-0.01-1.8-0.01-2.65c2.82-0.51,2.63,0.94,2.79,1.46c0.15,0.5-0.03,0.22,0.32,0.28c0.02-0.86,0.14-3.19-0.05-3.73
		c-0.57,0.23-0.02,1.05-0.86,1.47c-0.45,0.23-1.59,0.15-2.2,0.15c0-2.21-0.4-3.51,1.74-3.24c2.01,0.26,2.45,1.71,3,1.88
		c0.03-0.58-0.8-2.12-1-2.76c-0.55,0.1-0.32,0.4-1.24,0.49L111.52,80.41z"/>
	<path class="st3" d="M150.35,80.69c-0.35-0.46-2.55-0.37-2.76-0.12c0.24,0.3,0.66,0.18,1.05,0.32c0.43,0.15,0.3,0.43,0.29,0.99
		c-0.02,1.6,0.3,5.36-0.56,6.1c-0.24,0.2-0.24,0.13-0.46,0.2c-0.51,0.16-0.3-0.05-0.35,0.29c0.38,0.18,3.01,0.13,3.34-0.01
		c-0.33-0.76-1.6,0.52-1.59-2.81c0-1.39-0.07-2.97,0.02-4.33c0.86,0.83,4.63,7.26,5.3,7.52c0.19-0.17,0.34-0.38,0.54-0.55
		c0.25-0.22,0.41-0.2,0.62-0.45c-0.89-0.51-1.07,0.08-1.06-1.34c0.01-1.06-0.09-3.87,0.13-4.73c0.26-0.98,0.79-0.91,1.11-1.07
		c0.21-0.1,0.02,0.08,0.17-0.13c-0.14-0.16,0.06-0.1-0.32-0.16l-2.35-0.01c-0.47,0-0.52,0-0.68,0.17c0.3,0.44,0.83,0,1.25,0.66
		c0.53,0.82,0.34,4.27,0.32,5.41C153.81,86.26,151.09,81.66,150.35,80.69z"/>
	<path class="st5" d="M22.82,31.97c-0.15,0.16,0.04,0.1-0.35,0.21c0.26,0.21,0.79,0.61,0.97,0.81c0-0.17,0.06-0.37,0.2-0.49
		c0.2-0.43,0.48-0.25,0.88-0.09c0.42-0.53,0.96-2.04,2.08-3.4c0.92-1.11,1.3-1.5,2.3-2.4l0.36-0.38c-0.22-0.01-0.15-0.02-0.31-0.09
		l-0.29-0.16c-0.01,0.03-0.04,0.05-0.05,0.07l-0.11,0.14c-0.02,0.02-0.03,0.04-0.05,0.07c-0.33,0.49-0.06,0.42-0.49,0.42
		c0.22-0.59,0.1-0.38,0.08-0.61c0-0.05-0.02-0.07-0.03-0.1c-0.74,0.03-0.15,0-0.36,0.18l-0.3,0.29c-0.02-0.03-0.05-0.06-0.06-0.09
		c-0.01-0.03-0.04-0.05-0.04-0.09l0.1-0.48l-0.24,0.12c-0.35,0.2-0.02,0.42-0.2,0.13c0-0.01-0.02,0.02-0.03,0.03
		c-0.16-0.23,0.03-0.06-0.28-0.28c0.34-0.19,0.31-0.22,0.56-0.47c-0.2-0.48,0.03-0.09-0.32-0.39c-0.7,0.51-1.91,1.92-2.47,2.68
		c-0.43,0.59-1.72,2.42-1.89,3.15C22.75,31.02,23.59,31.7,22.82,31.97z"/>
	<path class="st3" d="M132.8,80.65c0.94-0.28,2.03-0.07,2.62,0.49c0.57,0.53,0.8,1.43,0.88,2.37c0.51,6.37-3.62,5.06-4.41,4.35
		c-0.59-0.52-0.78-1.39-0.88-2.42C130.85,83.71,130.89,81.21,132.8,80.65z M137.58,85.28c0.75-6.17-7.05-6.76-7.84-1.64
		c-0.41,2.67,1.03,4.69,3.09,5.08C135.36,89.21,137.31,87.46,137.58,85.28z"/>
	<path class="st3" d="M189.16,80.65c0.94-0.3,2.06-0.07,2.63,0.46c0.54,0.49,0.81,1.42,0.89,2.38c0.51,6.51-3.72,4.99-4.41,4.34
		C187.06,86.68,186.59,81.46,189.16,80.65z M186.08,85.09c0.2,2.24,2,3.96,4.55,3.66c4.86-0.58,4.45-9.23-1.19-8.53
		C187.26,80.49,185.84,82.51,186.08,85.09z"/>
	<path class="st4" d="M122.47,80.57c0.44,0.59,1.36-0.23,1.48,1.22c0.08,0.87,0.03,1.86,0.03,2.73c0,0.86,0.05,1.89-0.04,2.73
		c-0.15,1.37-1.07,0.59-1.48,1.13c0.36,0.5,3.19-0.02,4.28,0.19c-0.03-0.37,0.15-0.33-0.45-0.39c-1.46-0.13-1.33-0.45-1.24-3.77
		c0.68,0,1.48-0.11,2,0.29c0.2,0.16,0.34,0.38,0.42,0.7c0.24,1.05-0.03,0.69,0.32,0.81c0.17-0.32,0.17-3.44,0-3.75
		c-0.35,0.14-0.21,0.37-0.32,0.79c-0.28,1.06-1.37,0.81-2.42,0.81c-0.03-2.18-0.36-3.5,1.52-3.31c1.75,0.18,2.38,1.71,2.92,1.89
		c-0.02-0.45-0.86-2.56-1.13-2.79c-0.47,0.24-0.25,0.44-1.13,0.52C126.12,80.49,122.79,80.2,122.47,80.57z"/>
	<path class="st3" d="M66.65,89.23c0.4-0.53,0.18-0.7,1.13-0.58c0.55,0.07,0.92,0.16,1.49,0.08c2.47-0.34,3.77-3.85,0.05-4.9
		c-0.88-0.25-1.78-0.41-2.41-0.88c-1.73-1.28,0.62-3.31,2.57-2c1.27,0.85,0.97,1.31,1.63,1.63c0-0.56-0.8-2.28-1.03-2.78
		c-0.57,0.29-0.12,0.65-1.14,0.54c-1.12-0.12-2.83-0.22-3.34,1.43c-0.72,2.31,1.65,2.75,3.2,3.15c0.85,0.21,1.74,0.52,1.9,1.4
		c0.19,1.02-0.4,1.78-1.19,2c-0.96,0.28-2.01-0.13-2.58-0.59c-0.84-0.69-1.17-1.49-1.57-1.58c-0.07,0.42,0.38,1.24,0.56,1.65
		C66.12,88.25,66.31,88.99,66.65,89.23z"/>
	<path class="st3" d="M167.77,85.11c0.2-0.7,0.95-2.64,1.27-3.17l1.14,3.19L167.77,85.11z M169.62,88.38
		c0.1,0.11,0.1,0.15,0.41,0.18l3.78-0.06c-0.11-0.38-0.05-0.25-0.54-0.35c-0.22-0.04-0.4-0.08-0.58-0.18
		c-0.62-0.38-2.03-4.73-2.36-5.64c-0.27-0.75-0.68-1.57-0.81-2.27c-0.51,0.15-0.34,0.22-0.71,0.52c-0.28,0.22-0.42,0.2-0.67,0.46
		l0.19,0.19c0.01,0.01,0.04,0.03,0.06,0.04c0.13,0.08,0.23,0.1,0.33,0.14c-0.03,0.4-1.98,5.26-2.35,5.85
		c-0.4,0.64-0.66,0.74-1.16,0.9c-0.56,0.19-0.28-0.04-0.39,0.35c0.51,0.15,2.68,0.1,3.36,0c-0.11-0.37,0.12-0.21-0.4-0.34
		c-0.2-0.05-0.2,0.01-0.45-0.1c-0.9-0.43,0.13-2.32,0.3-2.56h2.66c0.25,0.37,0.81,1.83,0.59,2.4c-0.21,0.32-0.76,0.24-1.01,0.31
		l-0.2,0.11C169.67,88.32,169.64,88.36,169.62,88.38z"/>
	<path class="st4" d="M140.21,80.41c-0.52,0-1.65-0.19-1.96,0.17c0.45,0.66,1.39-0.43,1.43,1.79c0.02,1.02,0,2.08,0,3.11
		c0,1.19-0.12,1.88,0.57,2.59c0.57,0.59,1.39,0.73,2.4,0.73c5.03,0,1.75-5.62,3.36-7.67c0.41-0.52,0.68-0.13,0.96-0.54
		c-0.01-0.01,0-0.1-0.29-0.16c-0.09-0.02-0.35-0.01-0.45-0.01c-0.74,0-2.37-0.14-2.61,0.17c0.4,0.54,1.23-0.13,1.5,1.38
		c0.13,0.74,0.07,2.04,0.07,2.86c0,2.04,0.08,3.49-2.16,3.56c-2.59,0.09-2.3-1.35-2.3-3.56c0-0.91-0.06-2.03,0.01-2.92
		c0.14-1.67,1.09-0.73,1.49-1.31C141.96,80.2,140.71,80.41,140.21,80.41z"/>
	<path class="st2" d="M49.62,29.19c0.37,0.15,0.15,0.3,0.66,0.39c0.54,0.1,0.53-0.2,0.54-0.2l-0.45-0.07
		c-0.3-0.09-0.54-0.34-0.54-0.68c0-0.78,0.02-0.27,0.17-0.48c0.47,0.21,0.14,0.33,0.32,0.65c0.15,0.26,0.11-0.04,0.49,0.22
		c0,0,0.16,0.19,0.26,0.26c0.25,0.18,0.17-0.24,0.16,0.76c0.28,0.12,0.23,0.16,0.38,0.34c-0.43-0.13-0.11-0.14-0.57-0.06
		c-0.06,0.35-0.01,0.22-0.2,0.52l-0.37-0.33c-0.03,0.01-0.06,0.04-0.07,0.06c-0.01,0.01-0.05,0.04-0.07,0.05
		c-0.18,0.15-0.17,0.31-0.5,0.07c-0.18-0.13-0.55-0.47-0.58-0.65l0.56-0.1C49.67,29.2,49.53,29.89,49.62,29.19z M47.88,29.21
		c0.12,0.29,2.17,1.73,3.48,4.66c0.52,1.16,0.15,0.76,0.54,0.86c0.54,0.14,0.59-0.04,0.67,0.64c0.18,0.29,0.25-0.18,1.01-0.61
		c-0.02-0.01-0.05-0.07-0.05-0.05c-0.01,0.01-0.04-0.04-0.05-0.05c-0.14-0.15-0.02-0.01-0.14-0.16c-1.13-0.22,0.37-1.37,0.42-1.44
		c-0.41-1.05-1.15-2.3-1.77-3.11c-0.48-0.63-1.39-1.69-2.02-2.22l-0.32-0.19c-0.3-0.01-0.33-0.1-0.44-0.18
		c-0.21,0.33-0.12,0.05-0.14,0.52c0.43-0.02-0.02-0.01,0.3,0.01c0.64,0.05,0.36-0.12,0.55,0.18l-0.49,0.17
		c-0.39,0.04-0.21,0.09-0.4-0.09c-0.41-0.38,0.2,0.04-0.17-0.33c-0.26-0.27,0.11-0.02-0.18-0.07c-0.02,0-0.07,0.05-0.09,0.02
		c-0.01-0.03-0.06,0.01-0.09,0.03c0.08,0.3,0.25,0.24,0.38,0.47c-0.18,0.08-0.15,0.13-0.56,0l0.2,0.29c0,0,0.1,0.09,0.17,0.19
		L48.13,29c0.02-0.02,0.14-0.16,0.15-0.19l0.04-0.17c-0.01-0.43,0.15-0.04-0.19-0.2c-0.01,0.03-0.02,0.07-0.03,0.1l-0.09,0.35
		C47.96,29.04,47.96,28.98,47.88,29.21z"/>
	<path class="st3" d="M172.87,82.52c0.65-0.11,0.57-1.01,2.01-1.62c1.71-0.73,1.55,0.57,1.54,1.83c0,1.22,0.02,2.46,0,3.67
		c-0.02,1.28-0.04,1.68-1.04,1.78c-0.69,0.07-0.53,0.14-0.59,0.34c0.55,0.07,3.86,0.12,4.26-0.05c-0.07-0.3,0.06-0.21-0.37-0.28
		c-0.4-0.06-0.93,0.05-1.13-0.67c-0.09-0.3-0.34-6.31,0.18-6.69c0.63-0.45,2.08,0.34,2.66,1.12c0.22,0.29,0.28,0.49,0.64,0.57
		c0.03-0.41-0.83-2.4-1.13-2.67c-0.51,0.3-0.22,0.44-1.22,0.52c-0.58,0.05-1.21,0.02-1.79,0.02c-3.45,0-2.01-0.29-3.04-0.53
		C173.68,80.5,172.8,82.02,172.87,82.52z"/>
	<path class="st1" d="M0,29.04c0.11,0.52,1.76,4.15,2.03,4.47l4.26-1.27l-2-4.48L0,29.04z"/>
	<polygon class="st1" points="72.29,32.15 76.57,33.53 78.63,29.11 74.35,27.73 	"/>
	<path class="st3" d="M80.12,86.31c-0.42,0.03-0.3-0.01-0.5,0.37c-0.1,0.2-0.16,0.3-0.28,0.47c-1.31,1.86-5.58,2.18-5.47-2.63
		c0.04-1.85,0.54-3.56,2.12-3.91c2.47-0.54,3.19,2.01,3.89,2c-0.04-0.4-0.89-2.38-1.09-2.79c-0.49,0.21-0.24,0.59-1.01,0.52
		c-0.5-0.04-0.82-0.18-1.44-0.16c-4.73,0.13-5.14,8.13-0.09,8.58C78.49,88.96,80.2,87.48,80.12,86.31z"/>
	<path class="st3" d="M110.39,86.31c-0.63,0.07-0.46,0.38-0.82,0.88c-1.25,1.7-5.54,2.28-5.46-2.66c0.03-1.83,0.53-3.53,2.09-3.9
		c2.45-0.58,3.19,1.91,3.91,2.02c-0.03-0.42-0.91-2.52-1.1-2.82c-0.36,0.22-0.15,0.24-0.43,0.43c-0.18,0.12-0.35,0.11-0.59,0.09
		c-0.53-0.06-0.83-0.18-1.45-0.16c-2.73,0.1-4.26,3-3.48,5.76C104.24,90.08,110.01,89.27,110.39,86.31z"/>
	<path class="st3" d="M38.96,35.21c2.33-0.39,4.23,1.28,4.55,3.21c0.4,2.45-1.31,4.29-3.26,4.62C35.1,43.91,33.71,36.1,38.96,35.21z
		 M36.25,36.06c-0.2,0.26-0.27,0.33-0.43,0.59c-0.17,0.28-0.16,0.42-0.4,0.41c0.1,0.58-1.02,2.46,0.44,4.59
		c0.69,1.02,1.92,1.97,3.7,1.99c2.46,0.03,4.29-1.86,4.53-4c0.14-1.23-0.33-1.78-0.31-2.52c-0.36-0.18-0.55-0.7-0.82-1.05
		c-0.79-0.79-1.35-1.08-2.68-1.44l-1.33,0c-0.62,0.15-1.05,0.27-1.57,0.57c-0.23,0.13-0.45,0.27-0.62,0.41
		C36.5,35.81,36.51,35.88,36.25,36.06z"/>
	<path class="st3" d="M184.43,80.41c-0.52,0-2.79-0.16-3.1,0.17c0.45,0.61,1.33-0.27,1.48,1.24l0,5.4c-0.06,0.5-0.11,0.76-0.52,0.9
		c-0.63,0.23-0.8-0.15-0.95,0.37c0.48,0.16,2.4,0.07,3.2,0.08c1.08,0.01,0.78-0.05,0.88-0.18c-0.45-0.53-1.36,0.28-1.49-1.24
		l0.01-5.39c0.19-1.49,1.03-0.61,1.48-1.18C185.19,80.33,184.86,80.4,184.43,80.41z"/>
	<path class="st3" d="M84.57,80.71c0.21-0.09,0.03,0.05,0.18-0.13c-0.24-0.29-1.45-0.17-2.11-0.17c-1.12,0-1.82-0.19-1.96,0.26
		c0.8,0.33,1.37-0.18,1.48,1.21l-0.02,5.45c-0.05,0.41-0.14,0.65-0.5,0.78c-0.66,0.24-0.86-0.14-0.91,0.37
		c0.34,0.15,3.55,0.11,4.04,0.03c-0.11-0.37,0.01-0.27-0.51-0.33c-1.37-0.17-1-1.21-1-3.66C83.24,79.81,83.35,81.23,84.57,80.71z"/>
	<path class="st3" d="M36.15,5.8c0.67-0.12,1.72-0.18,2.37-0.01c-0.1-0.44,0.01-0.09-0.27-0.37c-0.34-0.34-0.04,0.21-0.27-0.27
		c-0.05-0.11-0.03,0.09-0.1-0.27l-0.04-0.86c-0.01-0.47-0.06-0.61,0.08-1.06h1.71c0.08,0.46,0.24,2.06-0.1,2.28l-0.37,0.3l2.37,0.09
		c-0.71-0.86-0.68,0.59-0.73-2.72c-0.01-0.56-0.18-2.09,0.11-2.49L41.44,0l-2.49,0.06c0.43,0.78,0.73-0.62,0.67,2.5h-1.73
		c0-0.49-0.06-1.2-0.02-1.66c0.08-1.02,0.36-0.24,0.63-0.86l-2.4,0.06c0.09,0.36,0.17,0.07,0.44,0.38c0.31,0.37,0.23,3.5,0.22,4.15
		C36.74,5.9,36.46,5.03,36.15,5.8z"/>
	<path class="st3" d="M5.42,21.8c0.18-0.95,0.88-1.09,1.55-0.54c0.77,0.62,0.48,1.08,0.17,1.89C6.68,22.95,5.63,22.19,5.42,21.8z
		 M4.17,23.51c0.94-0.42,0.05-0.82,2.35,0.87c0.3,0.22,1.49,1.01,1.61,1.34c0.15,0.44-0.09,0.48,0.11,0.76
		c0.31-0.58,1.07-1.76,1.26-2.39c-0.79,0.29-0.43,0.61-1.75-0.39c-0.33-0.25-0.31-0.15-0.38-0.53l2.73-0.05
		c0.29-0.49,0.61-0.92,0.77-1.49c-0.84,0.27-1.95,0.29-2.87,0.22c0.27-2.06-1.02-2.65-2.09-1.47c-0.39,0.42-0.61,0.95-0.94,1.51
		C4.7,22.35,4.24,22.95,4.17,23.51z"/>
	<path class="st3" d="M56.86,5.1c0.88,0.03,1.19,0.74,0.79,1.64c-0.43,0.96-0.79,0.76-1.68,0.48L56.86,5.1z M53.32,8.63
		c0.05,0.45-0.11,0.12,0.89,0.74c0.45,0.27,0.73,0.5,1.24,0.65c-0.02-0.04-0.05-0.12-0.06-0.1c-0.01,0.02-0.06-0.11-0.11-0.19
		c-0.2-0.38-0.25-0.46,0.01-1.03c0.16-0.36,0.4-1,0.65-1.24c0.65,1.19-0.17,2.83,0.79,3.42c0.34,0.21,0.6,0.36,0.98,0.48
		c-0.34-0.95-0.41-2.22-0.51-3.29c0.75,0.04,1.26-0.04,1.54-0.68c0.37-0.87-0.1-1.54-0.48-1.87c-0.46-0.41-2.3-1.55-2.84-1.72
		c0.32,1.17,0.63,0.09-0.5,2.75c-0.2,0.47-0.4,0.91-0.6,1.4C54.06,8.61,54.04,8.85,53.32,8.63z"/>
	<path class="st3" d="M26.43,2.83c0.72-0.59,1.26-0.19,1.49,0.64c0.31,1.09-0.17,1.42-0.94,1.64C26.85,4.7,26.43,3.29,26.43,2.83z
		 M27.13,2.17l-2.56,0.97c0.02,0.02,0.06,0,0.08,0.04l0.59,0.19l0.05,0.38l0.24,0.51c0.06,0.2,0.12,0.44,0.18,0.66l0.7,2.52
		c0.12,0.67-0.12,0.69-0.4,0.98c0.39,0.06,0.79-0.17,1.15-0.3c0.37-0.14,0.87-0.25,1.16-0.53c-0.31-0.16-0.6,0.13-0.86-0.76
		c-0.13-0.46-0.29-0.98-0.36-1.47C27.53,5.48,29,6.9,29.22,7.3c0.47-0.11,1.26-0.28,1.57-0.69c-0.5-0.06-1.73-1.15-2.17-1.62
		c-0.02-0.02-0.04-0.06-0.06-0.07l-0.11-0.15c0.3-0.42,0.99-1.06,0.51-2.02C28.62,2.04,27.92,2.07,27.13,2.17z"/>
	<path class="st6" d="M26.82,24.94c0.35,0.3,0.12-0.09,0.32,0.39c-0.25,0.25-0.22,0.29-0.56,0.47c0.31,0.23,0.12,0.05,0.28,0.28
		c0.01,0,0.03-0.04,0.03-0.03c0.18,0.29-0.16,0.08,0.2-0.13l0.24-0.12l-0.1,0.48c0,0.04,0.03,0.06,0.04,0.09s0.04,0.06,0.06,0.09
		l0.3-0.29c0.21-0.18-0.38-0.15,0.36-0.18c0.01,0.03,0.03,0.04,0.03,0.1c0.01,0.23,0.14,0.02-0.08,0.61c0.43,0,0.16,0.06,0.49-0.42
		c0.02-0.02,0.03-0.04,0.05-0.07l0.11-0.14c0.01-0.02,0.04-0.05,0.05-0.07l0.29,0.16c0.16,0.07,0.09,0.08,0.31,0.09l2.47-1.64
		c-0.01-0.4-0.15,0.02,0.13-0.49l-0.89,0.28c-0.17-0.43,0.04-0.12-0.21-0.31l-0.4-0.16l0.12-0.17c0.28-0.43,0.23-0.1,0.25-0.67
		c-0.03,0.02-0.06,0.02-0.08,0.07c0,0.02-0.51,0.58-1.24,0.59c0.35-0.82,0.13-0.31,0.46-0.44c0.02-0.01,0.05,0,0.07-0.01
		c0.27-0.13,0.08,0.14,0.22-0.2c-0.16-0.32,0.09-0.07-0.19-0.24c-0.04-0.02-0.21-0.06-0.24-0.06
		C28.61,23.53,27.82,24.03,26.82,24.94z"/>
	<path class="st3" d="M51.24,2.47c2.26-0.94,1.33,4.62-0.11,5.09c-1.34,0.45-1.57-1.21-1.32-2.41C50.02,4.1,50.51,2.77,51.24,2.47z
		 M50.54,2.12c-3.34,1.04-2.04,6.74,1.33,5.81c1.12-0.31,2.18-1.97,1.79-3.74C53.37,2.89,52.03,1.66,50.54,2.12z"/>
	<path class="st3" d="M71.74,25.62c0.12-0.58-0.65,0.14-1.5-0.54c-0.31-0.25-0.75-0.77-0.77-1.44c0.32-0.29,1.26-1.04,1.68-1.22
		c0.57,1.49-0.17,1.18-0.28,1.92l0.34-0.07c0.16-0.31,0.75-0.73,1.09-0.82c0.3-0.47,0.65-0.5,0.53-0.65
		c-0.36-0.24-0.83,0.62-1.47-0.51l1.59-1.2c0.29,0.24,0.6,0.69,0.71,1.25c0.16,0.82-0.23,1.04-0.45,1.61
		c0.48-0.18,0.98-0.54,1.22-0.92c-0.24-0.59-0.65-1.02-0.84-1.68c-0.5-0.36-0.87-1.98-1.47-2.27l0.11,0.82l-2.92,2.22
		c-0.7,0.53-0.59,0.2-1.12-0.07c0.11,0.49,1.88,3.54,2.24,4.14L71.74,25.62z"/>
	<path class="st3" d="M20.27,10.05c-0.48,0.12-0.15-0.17-0.24,0.38c-0.04,0.23,0.12,0.79-0.25,1.47c-0.25,0.45-0.64,0.85-1.15,0.89
		c-0.32-0.33-0.97-1.37-1.15-1.87c1.05-0.75,1,0.06,1.66,0.25c-0.1-0.36-0.25-0.54-0.42-0.82c-0.24-0.37-0.31-0.44-0.36-0.83
		c-0.22-0.09-0.02,0.03-0.19-0.14c-0.13-0.14,0-0.01-0.15-0.2C17.83,8.93,18,8.98,17.68,8.85c0.17,0.97,0.32,1.35-0.42,1.82
		c-0.3-0.54-0.94-1.27-1-2c0.24-0.17,0.8-0.66,1.2-0.72c0.74-0.12,0.75,0.35,1.31,0.51c-0.26-0.55-0.54-0.86-0.74-1.39
		c-0.51,0.12-2.49,1.84-3.07,2.34l-0.4,0.49c0.81-0.22,0.72-0.14,1.12,0.53c0.27,0.47,0.49,0.83,0.79,1.31
		c1.65,2.67,0.98,1.64,0.82,2.63c0.4-0.16,3.1-2.39,3.45-2.79C20.6,11.04,20.29,10.57,20.27,10.05z"/>
	<path class="st3" d="M12.74,16.83l0.22,0.43c0.31,1.13-0.54,2.39-0.93,2.39c-0.13,0-1.31-1.04-1.52-1.61
		c0.74-0.44,0.7-0.62,1.52-0.08c0.13-0.11,0.12,0.26,0.1-0.29l-0.36-0.25c-0.3-0.3-0.87-0.81-1.06-1.17
		c-0.09-0.05-0.3-0.13-0.43-0.2c0.31,0.99,0.6,0.91,0.06,1.92c-0.37-0.2-1.23-1.11-1.45-1.47c0.69-2,2.1-1.12,2.35-1.09
		c-0.22-0.34-0.82-0.97-1.11-1.12c-0.34,0.39-2.58,3.15-2.66,3.68C8.21,17.66,8,17.31,9.7,19.22c1.76,1.99,1.51,1.01,1.3,2.31
		c0.26-0.11,2.45-3.12,2.81-3.58c-0.23-0.57-0.54-0.81-0.78-1.39C12.73,16.68,12.9,16.52,12.74,16.83z"/>
	<path class="st3" d="M65.3,18.43c0.66,0.46,1.11,1.76,1.76,2.07c-0.3-0.91-0.54-0.73,0.16-1.42c0.39-0.39,0.64-0.76,1.1-0.99
		c0.48,1.21,0.08,0.94-0.17,1.88c0.29-0.14,0.39-0.26,0.6-0.46c0.38-0.37,0.29-0.41,0.58-0.49l0.16-0.24
		c0.3-0.37,0.31-0.19,0.54-0.74c-0.91,0.34-0.76,0.47-1.57-0.02c0.13-0.49,1.07-1.42,1.52-1.54c0.22,0.17,0.65,0.72,0.76,1.11
		c0.17,0.55,0.03,1.06-0.37,1.42l0.23,0.19c0.29-0.34,0.65-0.74,0.97-0.97c-0.11-0.37-0.91-1.42-1.17-1.74l-1.22-1.74
		c-0.29-0.14-0.01-0.04-0.35-0.1c0.36,0.87-0.23,1.28-1.26,2.27c-0.34,0.32-0.63,0.63-0.97,0.97c-0.27,0.27-0.69,0.91-1.07,0.32
		C65.09,18.17,65.41,18.13,65.3,18.43z"/>
	<path class="st4" d="M46.87,4.63l0.31-2.39c-0.38,0.34-0.31,0.59-0.56,0.82c-0.2,0.19-0.5,0.22-0.86,0.14l0.35-2.19
		c1.73-0.04,1.73,0.89,1.93,1.78c0.26-0.34,0.33-1.19,0.31-1.69l-3.99-0.82c0.13,0.36-0.01,0.11,0.2,0.28
		c0.13,0.11,0.1,0.02,0.3,0.21c0.03,0.59-0.4,3.31-0.55,4.18s-0.23,0.49-0.76,0.77c0.21,0.25,2.1,0.58,2.21,0.58l-0.33-0.43
		c-0.03-0.67,0.15-1.7,0.29-2.34c0.69,0.14,0.88,0.57,0.88,1.45C46.93,4.86,46.72,5.13,46.87,4.63z"/>
	<path class="st4" d="M15.33,12.9c-1.11-0.06-1.76,0.56-2.79,0.37c-0.41-0.61-0.48-1.26,0.23-1.61c0.72-0.36,1.15,0.01,1.76,0.27
		l0.02-0.31l-1.01-0.93c-0.47,0.89-1.43,0.57-1.73,1.95c-0.29,1.31,0.63,2.17,1.81,1.99c0.15-0.02,2.7-1.09,2.27,0.79
		c-0.39,1.67-2.47,0.36-2.56,0.36c0.2,0.59,0.72,1.01,1.01,1.61c0.55-0.36-0.1-0.09,0.41-0.57c0.12-0.12,0.41-0.22,0.57-0.33
		c0.33-0.22,0.75-0.66,0.91-1.04C16.83,14.12,16.1,13.36,15.33,12.9z"/>
	<path class="st3" d="M59.47,12.43c0.09,0.34,0.04,0.21,0.31,0.47l1.25,1.14c0.43,0.41,1.33,1.27,1.75,1.47
		c0.66-0.95,0.93-0.71,1.09-1.37c-0.53,0.14-0.96,0.54-1.64,0.41c-0.54-0.11-0.96-0.55-1.12-1.02l2.13-3.27
		c0.4-0.55,0.49-0.5,1.08-0.24c-0.05-0.32-0.03-0.24-0.33-0.51l-1.6-1.33c0.19,1.01,0.65,0.15-1.01,2.62
		c-0.27,0.4-0.51,0.74-0.79,1.18C60.2,12.55,60.21,12.72,59.47,12.43z"/>
	<path class="st4" d="M21.44,6.77l1.29,1.24c0.01-0.02,0.03,0.05,0.04,0.1l-1.16,0.67L21.44,6.77z M25.42,8.88
		c0.1-0.12,0.05-0.19,0.15-0.35c-0.89,0.02-2.61-2.06-3.35-2.75c-0.61-0.58-0.67-0.88-1.18-0.86l0.35,4.78
		c0.07,1,0.02,0.78-0.22,1.51c0.46-0.11,1.08-0.51,1.3-0.76c-0.02-0.01-0.05-0.04-0.06-0.01c0,0-0.41,0.05-0.56-0.13
		c-0.2-0.22-0.17-0.77-0.17-1.1c0.75-0.74,1.6-1.28,2.16,0c-0.13,0.41-0.15,0.27-0.38,0.58C24.06,9.86,24.79,8.95,25.42,8.88z"/>
	<path class="st4" d="M32.24,0.64c-0.16,0.16-0.31,0.23-0.46,0.37c-0.16,0.14-0.11,0.12-0.23,0.22c-0.25,0.21-0.06,0.09-0.23,0.14
		c-0.34,0.82-0.65,1.17-0.55,2.36c0.1,1.07,0.55,1.44,0.81,2.07c0.25,0.07-0.01-0.02,0.21,0.09c0.14,0.07,0.02,0.01,0.2,0.12
		c2.07,1.22,3.28-0.8,3.44-0.89l0.1-0.48c-0.71,0.04-0.06,0.21-0.92,0.89c-2.58,2.04-3.59-4.37-1.68-4.78
		c1.13-0.24,1.5,1.04,2.11,1.31l-0.22-1.54c-0.16-0.67,0.19,0.61-0.06-0.19l-0.3,0.1c-0.13,0.11-0.01,0.07-0.22,0.12
		C33.78,0.67,33.81,0.24,32.24,0.64z"/>
	<path class="st3" d="M65.13,18.13c-0.36-1.37-0.66-0.39,1.08-2.69c0.25-0.32,0.69-0.81,0.94-1.13c0.75-0.97,0.52-0.31,1.17-0.34
		c-0.23-0.36-0.75-0.8-0.98-1.27c-0.51-0.21-0.31-0.41-0.9-0.71c0.3,0.9,0.46,0.67-0.18,1.41l-1.79,2.24
		c-0.52,0.72-0.43,0.64-1.22,0.34C63.41,16.46,64.72,17.77,65.13,18.13z"/>
	<path class="st2" d="M50.82,29.38c0,0,0,0.3-0.54,0.2c-0.51-0.09-0.3-0.23-0.66-0.39c-0.09,0.7,0.05,0.01,0.19,0.75l-0.56,0.1
		c0.04,0.18,0.4,0.52,0.58,0.65c0.33,0.25,0.32,0.08,0.5-0.07c0.02-0.01,0.05-0.04,0.07-0.05c0.02-0.01,0.05-0.04,0.07-0.06
		l0.37,0.33c0.19-0.3,0.13-0.17,0.2-0.52c0.45-0.09,0.13-0.07,0.57,0.06c-0.14-0.19-0.1-0.22-0.38-0.34c0.01-1,0.09-0.57-0.16-0.76
		c-0.1-0.07-0.25-0.26-0.26-0.26c-0.38-0.26-0.33,0.04-0.49-0.22c-0.19-0.32,0.14-0.43-0.32-0.65c-0.15,0.21-0.17-0.3-0.17,0.48
		c0,0.34,0.24,0.59,0.54,0.68L50.82,29.38z"/>
	<path class="st7" d="M49.29,37.17c0.01,0.02,0.03,0.05,0.05,0.07c0.01,0.02,0.03,0.05,0.04,0.07c0.01,0.02,0.03,0.05,0.04,0.07
		l0.12,0.49c0.1,0.21-0.09,0.19,0.2,0.02c0.06-0.03,0.25-0.2,0.32-0.26c0.2-0.17,0.4-0.32,0.58-0.45l-0.38-0.22
		c-0.13-0.04-0.19-0.07-0.32-0.14l0.14,0.37C49.75,37.27,49.6,37.25,49.29,37.17z"/>
</g>
</svg>
