<?xml version="1.0" encoding="utf-8"?>
<!-- Generator: Adobe Illustrator 26.2.1, SVG Export Plug-In . SVG Version: 6.00 Build 0)  -->
<svg version="1.1" id="Layer_1" xmlns="http://www.w3.org/2000/svg" xmlns:xlink="http://www.w3.org/1999/xlink" x="0px" y="0px"
	 viewBox="0 0 417.26 187.14" style="enable-background:new 0 0 417.26 187.14;" xml:space="preserve">
<style type="text/css">
	.st0{fill-rule:evenodd;clip-rule:evenodd;fill:#FCD0AE;}
	.st1{fill-rule:evenodd;clip-rule:evenodd;fill:#7D7E80;}
	.st2{fill-rule:evenodd;clip-rule:evenodd;fill:#F6911F;}
	.st3{fill-rule:evenodd;clip-rule:evenodd;fill:#7D7F80;}
	.st4{fill-rule:evenodd;clip-rule:evenodd;fill:#7E8082;}
	.st5{fill-rule:evenodd;clip-rule:evenodd;fill:#EC903A;}
	.st6{fill-rule:evenodd;clip-rule:evenodd;fill:#EC913A;}
	.st7{fill-rule:evenodd;clip-rule:evenodd;fill:#E89541;}
</style>
<g>
	<path class="st0" d="M87.42,99.75c0-3.01,2.31-4.05,3.95-5.51l12.89-10.83c1.28-1.08,1.76-1.82,2.81-1.6
		c0.55,4.33-3.91,12.64-5.98,15.44c-2.39,3.24-4.93,5.69-8.07,7.94c-1.16,0.83-2.04,1.27-3.22,2.07c-0.21,1.16,0.1,2.27-1.05,2.4
		c-1.19,0.13-1.34-0.79-1.34-1.8V99.75z M58.46,120.3l0.06-0.58c-1.56-0.03-1.28,0-1.56-0.59c0-0.01,0.21-0.93,1.17-0.56
		c0.69,0.26,0.53,0.37,0.41,1.06c0.88-0.68,0.11,0.28,0.35-0.53c0.27-0.92-0.04-0.2,0.02-1.08c0.07-0.91,0.32,0.74,0.07-0.7
		l-0.78,0.72c-1.67,0.76-1.65-1.51-1.71-2.07c-0.87-0.54-2.12-0.95-3.17-1.51c-0.93-0.5-2.03-1.16-2.88-1.67
		c-1.88-1.14-3.96-2.77-5.32-3.97c-5.16-4.57-8.92-9.79-11.51-16.35c-0.94-2.39-1.51-4.44-2.14-7.16c-0.89-3.83-1-8.94-0.55-12.98
		c0.2-1.8-0.08-2.81,1.96-2.65c1.01,1.76,0.02,3.26,0.06,7.55c0.08,7.62,1.97,13.59,5.53,20.06c3.4,6.19,11.39,13.71,17.88,16.08
		c0.74-1.04-0.01-1.87,2.17-1.46c0.04-1.33,0.46-0.21,0.3-1c-0.01-0.02-0.04-0.1-0.04-0.13c-0.01-0.02-0.03-0.1-0.06-0.14
		c-1,0-1.67,0.19-2.37-0.39c0.45-0.61,0.02-0.29,0.9-0.48c-0.83-1.11-0.64-0.82-0.7-2.54c-2.74-1.22-6.54-4.43-8.37-6.39
		c-0.83-0.89-6.01-7.07-5.86-8.74c-1.34-1.06-3.36-8.46-3.1-10.26c1.2-0.21,3.67,2.29,5.09,3.5c0.95,0.81,1.61,1.36,2.37,1.99
		c0.53,0.44,0.76,0.62,1.18,0.98l0.93,0.94c0.02-0.03,0.07,0.09,0.1,0.14c0.56,0.13,1.18,0.81,1.63,1.2
		c1.02,0.87,4.11,3.63,4.92,3.94c-0.08-2.1-0.63-0.12-1.47-2.25l1.75,0.76c0.87,0.8-0.39,0.21,1.02,0.63v-1.78
		c0.82,0,0.15,0.12,0-0.5c0.63,0.18,0.49-0.21,0.59-0.89c-0.96,0.41-0.97-0.26-0.99-1.38c0.7,0.75,0.77,0.62,1.1,1.23
		c0.11,0.2,0.18,0.4,0.28,0.55l1.18-0.09c-0.45-0.71-2.91-2.63-3.6-3.22L37.47,72.57c-1.15-1-2.32-1.9-3.55-2.96
		c-1.16-1-3.09-1.85-1.43-3.81c1.3-0.18,1.84,0.62,2.6,1.26L62.7,90.23c1.09,0.89,3.26,2.49,3.77,3.94
		c0.46,1.29,0.18,55.79,0.18,62.13l0,27.49c-0.11,1.11-1.15,1.79-2.1,1.1c-0.93-0.67-0.53-5.88-0.53-7.43V99.75
		c0-2.62,0.46-5.14-1.65-6.1c0.3,1.09-0.29,0.65,0.06,1.57c0.18,0.48,0.51,0.54,1.04,0.57l1.28,89.87c0.62,0.4,0.18-0.21,0.5,0.49
		c-0.94,0.76-0.83,0.06-1.78-0.2c-0.42,0.71-0.33,0.38-2.78,0.4c-0.73,0.01-1.01,0.01-1.56-0.12c-1.43-0.32-0.08,0.34-2.78-0.03
		c-0.63-0.09-1.18-0.07-1.81-0.01c-1.5,0.13,0.26-0.04-1.16-0.18c-0.42-0.04-0.59,0.08-0.65,0.12l-0.43,0.34
		c-1.17,0.97,0.79-0.34-0.3,0.27l-0.12-0.56c-0.5,0.38-0.42,0.22-0.56,0.96h43.56c-0.14-0.71-0.9-1.71-1.18-2.13l-5.12-0.05
		c-0.05-0.01-0.11-0.02-0.15-0.03l-0.35-0.16c-0.3-0.17-0.27,0.12-0.57-0.52c-0.29-0.62-0.11-51.53-0.11-56.24
		c0-2.38-0.5-5.88,0.5-7.76c1.61-0.16,1.48,0.19,1.89,0.82l0.16,0.24c1.22-0.37,5.81-2.19,6.74-3.38c1.09,0.12,6.66-4.39,7.72-5.31
		c1.07-0.92,2.07-1.91,3.33-3.2c0.6-0.62,0.94-1.05,1.57-1.8l1.52-1.67c0.43-1.05,1.64-2.38,2.28-3.42
		c0.46-0.76,1.59-3.05,2.21-3.49c-0.01-0.9,1.12-2.26,1.4-3.54c-1.04,0.64-0.66,0.66-0.67,0.67c-0.2-0.19-1.38,0.48,0.04-1.59
		c0,0,0.2-0.31,0.24-0.38c0.62-0.99,0.51-0.88,0.51-2.38c-1.15,0.22-0.71,0.37-1.97,0.39l0.59-1.38c-1-0.13-0.54,0.24-0.59-0.99
		c0.84,0.22,0.72-0.39,0.72-0.39c0.22-0.67-0.21-1.24-0.56-1.71l-0.55-0.67c0.44-0.79,0.67-1.92,0.48-2.7
		c-0.43,0.57-1.23,4.58-1.55,5.56c-0.62,1.89-1.17,3.26-2.03,5.12c-2.81,6.07-7.2,11.47-12.67,15.59c-1.9,1.43-6.63,4.57-8.9,5.15
		c-0.2,1.59,0.18,2.44-1.8,2.28c-0.53-0.67-1.59-6.6,0.77-6.35c1.27,0.13,0.87,2,1.12,1.35c0.01-0.03,0.05,0.1,0.08,0.14
		c1.86-0.61,3.79-1.94,5.5-3.03c10.62-6.81,17.43-19.58,17.71-32.6c0.03-1.57-0.71-6.88-0.14-7.62c0.16-1.55,0.05-0.53-0.25-0.75
		c-0.71,0.72-1.64,1.44-2.42,2.08L94.12,84.94c-2.65,2.25-6.3,5.29-9.25,7.74c-2.24,1.86-2.58,1.93-2.58,5.88v76.52
		c0,2.6,0.2,6.02,0,8.51c-0.12,1.5-1.45,2.1-2.33,1.08c-0.54-0.62-0.35-2.84-0.35-3.86l0-85.03c0.01-2.9,1.85-3.71,3.45-5.1
		l13.91-11.67c-0.06-0.53,0.12-0.32-0.31-0.63c0,0,0.65,0.2-1.19,0.2c0,0.32,0.07,0.56-0.13,0.81c0,0,0.01,0.57-0.66-0.01
		c0.22,0.17-0.41,0.42,0.28,0.07c0.48-0.25,0.01,0.14,0.31-0.46c-0.4-0.77,0.38-0.5-0.99-0.59L95.1,78c-0.56,0-0.6-0.26-1.19-0.79
		C93.82,78.01,94,77.8,93.12,78c-0.17-0.15-0.88-1.05-1.62-0.68c-0.67,0.34-0.51,0.7-1.68,1.01c-0.95,0.42-1.79,1.42-2.82,2.13
		l-0.53-0.54c-0.45,2.07-5.02,5.11-7.22,6.94c-3.7,3.06-4.79,3.02-4.79,9.73c0.01,12.9,0.36,85.67-0.12,87.52
		c-0.02,0.08-0.09,0.1-0.12,0.12c-0.03,0.03-0.08,0.09-0.11,0.12c-0.37,0.34-0.56,0.56-1.13,0.55c-1.8-0.02-1.18-2.66-1.18-6.85
		V98.37c0-8.46,0.37-7.49-7.71-14.06c-0.75-0.61-1.22-1.02-1.93-1.63l-2.1-1.76c-0.27,0.34,0.29,0.44-0.5,0.04l-1.54-1.26
		c-0.56-0.44-1.57-1.25-2.04-1.7l0.73-0.53c-1.56,0.4-1.91-0.42-2.82-1.15c-0.77-0.63-1.29-1.11-2.12-1.87l-2.03-1.59
		c0.05-0.04,0.24-0.19,0.28-0.23l0.24-0.23c-1.58,0.03-1.94-0.73-2.97-1.55c-0.79-0.63-2.05-1.15-1.42-2.73
		c-0.45,0.35-0.16,0.08-0.45,0.57c-0.04,0.06-0.12,0.36-0.17,0.45l-1.81-1.38c0.04-0.05,0.08-0.13,0.1-0.16l0.34-0.47
		c-1.45,0.06-1.94-0.71-2.87-1.47c-0.87-0.72-1.83-0.97-1.54-2.65c-0.3,0.26-0.4,0.68-0.41,1.04c-0.36-0.42-1.48-1.26-2.03-1.71
		c0.83-0.21,0.42-0.11,0.74-0.44c-1.59,0.34-2.13-0.67-3.04-1.43c-0.91-0.75-1.79-1.07-1.63-2.62l-0.43,0.88l-1.6-1.69
		c0.02-0.02,0.08-0.08,0.11-0.1l0.21-0.21l-1.54,0.01c-5.74,12.77-5.85,28.41,0.29,40.75c2.96,5.95,6.43,10.54,10.59,14.31
		c3.34,3.03,11.14,8.64,15.6,9.6c0.03-0.05,0.07-0.19,0.09-0.16l0.16-0.3C57.11,120.11,57.29,120.16,58.46,120.3z"/>
	<path class="st1" d="M300.56,140.49c0.3-1.32,3.77-11.23,4.24-11.93c0.68,0.85,1.83,4.58,2.35,6.01c0.66,1.83,1.62,4.04,2.14,5.9
		L300.56,140.49z M331.51,137.12c-0.07-2.4-0.26-7.25,0.01-9.46c0.32-2.6,4.22-2.64,6.64-2.17c6.97,1.35,5.68,10.56,1.9,10.38
		c0.16-0.87,0.4-1.42-0.08-2.14c-1.23,0.59-0.54,2.3-3.02,2.94C335.38,137.07,333.18,137.19,331.51,137.12z M302.3,150.79
		c-1.85-0.96-5.05,0.03-4.21-3.38c0.49-2.01,1.49-4.1,2.05-6.04l9.41,0c0.61,0.92,1.87,5.12,2.19,6.4c0.87,3.55-3.98,1.74-4.99,3.19
		c0.35,0.49,0.39,0.51,1.23,0.55c0.61,0.03,1.35,0,1.97,0l19.57,0.02c1.32,0,2.64,0.01,3.95,0.01c2.14,0.01,2.94,0.35,3.44-0.58
		c-0.7-1.24-1.49-0.07-3.46-1.16c-0.91-0.51-1.7-1.28-1.89-2.65c-0.31-2.22-0.06-6.65-0.05-9.09l4.14-0.01
		c0.54,0.65,6.28,10.87,6.58,11.82c0.76,0.61,0.74,1.64,2.06,1.46c1.34-0.42,4.07,0.57,5.24-0.35c-0.09-0.9,0.05-0.26-0.25-1.05
		c-0.71-0.78-1.63-0.24-2.83-2.26c-0.95-1.61-5.57-9.21-5.6-9.84c8.71-0.23,10.4-9.48,3.36-12.65c-3.74-1.68-12.42-1.14-17.47-1.13
		c-1.71,0.01-4.57-0.41-5.45,0.66c0.67,1.66,5.44-0.85,5.59,3.72c0.08,2.47,0.17,18.08-0.21,19.49c-0.67,2.4-4.31,3.04-7.01,2.22
		c-2.98-0.9-3.09-2.81-4.17-5.72c-0.88-2.38-1.75-4.73-2.6-7.1l-5.23-14.27c-1.14,0.08-0.93,0.33-1.51,0.97
		c-1.49,1.67-3.74,1-4.31,2.22c0.47,0.49,1.34,0.68,1.98,0.97c0.19,1.37-1.67,5.42-2.23,6.88c-1.26,3.29-3.72,10.1-4.96,12.84
		c-0.94,2.09-2.54,3.47-5.45,3.45c-3.19-0.01-4.58-1.38-4.62-4.56c-0.03-2.51-0.14-16.35,0.08-17.79c0.54-3.49,4.48-2.13,5.68-3.17
		c-0.35-1.23-2.13-0.85-3.51-0.85c-1.45,0.01-2.9,0.01-4.35,0.01c-1.45,0-2.9,0.01-4.35,0.01c-1.2,0.01-3.13-0.37-3.83,0.62
		c0.91,1.35,4.47,0.04,5.73,3.03c0.52,1.23,0.35,6.66,0.29,8.24l-13.95-0.09c-0.06-1.59-0.19-7.23,0.11-8.42
		c0.79-3.17,4.7-1.1,5.65-2.77c-0.52-0.99-2.2-0.65-3.68-0.65c-2.66,0.01-11.13-0.35-12.21,0.45c0.6,1.86,5.41-0.31,5.77,3.8
		c0.15,1.75,0.12,17.71-0.1,18.94c-0.77,4.2-4.79,2.36-5.74,3.76c0.37,0.59,0.61,0.56,1.59,0.56c2.74,0.01,13.05,0.27,14.2-0.21
		c-0.28-2.29-5.03,0.9-5.55-4.41c-0.24-2.44-0.17-7.19-0.03-9.75l14.02,0c-0.34,3,0.15,6.74-0.09,9.86
		c-0.35,4.75-4.3,2.11-5.89,3.95c0.55,0.96,5.05,0.56,6.28,0.57l17,0.02C300.91,151.56,301.85,151.91,302.3,150.79z"/>
	<path class="st0" d="M55.46,94.48c0.08,0.3,2.24,2.14,2.52,2.46c1.05,1.19,0.89,2.28,0.89,4.19c0,1.71,0,3.43,0,5.14
		c-0.01,2.25,0.56,3.14-1.61,3.47c-0.88,0.2-0.45-0.12-0.9,0.48c0.7,0.58,1.38,0.39,2.37,0.39c0.03,0.04,0.05,0.11,0.06,0.14
		c0.01,0.02,0.04,0.1,0.04,0.13c0.16,0.78-0.26-0.34-0.3,1c0.07,0.38,0.22,0.18,0.32,0.93c0.06,0.43,0.03,1.11,0.02,1.57
		c-0.01,0.96-0.09,2.05,0.11,2.93c0.26,1.44,0-0.21-0.07,0.7c-0.06,0.88,0.25,0.15-0.02,1.08c-0.24,0.82,0.53-0.15-0.35,0.53
		c0.12-0.68,0.28-0.8-0.41-1.06c-0.96-0.37-1.17,0.56-1.17,0.56c0.28,0.6,0,0.57,1.56,0.59l-0.06,0.58c0.78,1.67,0.42,5.5,0.42,7.73
		v53.58c0,1.67,0.28,2.32-0.58,3.36l-5.87,0.05c-0.35,0.59-0.45,0.39-0.54,1.17l0.12,0.56c1.1-0.61-0.87,0.7,0.3-0.27l0.43-0.34
		c0.06-0.03,0.23-0.16,0.65-0.12c1.42,0.14-0.34,0.3,1.16,0.18c0.63-0.05,1.18-0.07,1.81,0.01c2.69,0.37,1.35-0.29,2.78,0.03
		c0.55,0.12,0.83,0.12,1.56,0.12c2.45-0.02,2.35,0.31,2.78-0.4c0.95,0.26,0.84,0.96,1.78,0.2c-0.32-0.7,0.12-0.09-0.5-0.49
		L63.47,95.8c-0.53-0.04-0.86-0.09-1.04-0.57c-0.35-0.92,0.24-0.48-0.06-1.57c-0.33-0.61-2.85-2.74-3.45-2.9l-1.18,0.09
		c-0.09-0.15-0.17-0.35-0.28-0.55c-0.34-0.61-0.41-0.48-1.1-1.23c0.02,1.12,0.02,1.79,0.99,1.38c-0.1,0.68,0.04,1.07-0.59,0.89
		c0.15,0.62,0.82,0.5,0,0.5v1.78c-1.4-0.41-0.15,0.18-1.02-0.63l-1.75-0.76C54.83,94.37,55.38,92.38,55.46,94.48z"/>
	<path class="st2" d="M48.86,35.8l-8.8,6.66c-0.18,0.75-1.56,1.68-2.37,2.62c-1.67,1.93-5.83,7.25-6.47,9.39
		c0.45,0.52,1.73,1.79,0.2,2.25l-0.21,0.21c-0.02,0.02-0.08,0.08-0.11,0.1l1.6,1.69l0.43-0.88c0.77-1.08,1.2-0.49,2.07-0.07
		c0.98-1.53,1.77-3.17,2.81-4.66c13.54-19.34,39.04-24.29,58.24-11.65c5.18,3.4,12.16,10.31,14.42,16.04
		c1.04-0.2,1.42-0.58,1.91,0.32c0.31,0.34,0.03-0.01,0.26,0.41c0.19,0.34-0.02,0.13,0.24,0.48c0.42-0.51,1.29-1.1,1.9-1.56
		c-0.71-0.31-0.33-0.09-0.66-0.45c-1.77-0.56,0.03-1.88,0.46-2.44c-0.37-1.28-2.08-3.56-2.88-4.76c-0.51-0.77-1.04-1.44-1.61-2.14
		l-1.35-1.61c-0.03-0.05-0.12-0.18-0.15-0.23c-0.19-0.33-0.06-0.05-0.16-0.38c-0.43-0.27-0.43-0.29-0.8-0.66
		c-0.21-0.2-0.39-0.38-0.6-0.58c-0.44-0.43-0.84-0.74-1.16-1.5l0.06,0.13c-0.54-0.21-3.59-2.95-4.77-3.83l-5.11-3.48
		c-0.48-0.05-0.07,0.04-0.55-0.15c-0.21-0.08-0.45-0.22-0.65-0.32C83.98,29,71.44,27.82,59.36,31.37c-2.01,0.59-3.95,1.34-5.5,2.01
		L48.86,35.8z"/>
	<path class="st1" d="M399.96,128.49l4.36,11.97l-8.76,0c0.62-2.31,2.63-7.48,3.6-10.38c0.27-0.8,0.19-0.82,0.68-1.46
		C399.87,128.59,399.92,128.54,399.96,128.49z M373.5,132.05l1.12,0.16l2.83-6.05c0.46,4.62,0.14,10.57,0.14,15.31
		c0,1.93,0.23,5.56-0.5,7.07c-1.13,2.34-3.77,1.23-5.52,2.15c0.25,1.2,1.18,0.82,2.41,0.82c1.12,0,2.24,0.01,3.36,0.01
		c3.32,0.01,18.64,0.22,19.79-0.15c0.01-1.49-1.32-0.86-2.72-1.25c-1.32-0.36-1.66-1.21-1.34-2.61c0.32-1.41,1.55-4.85,2.19-6.12
		l9.32-0.03c0.35,0.55,1.93,5.36,2.16,6.31c0.89,3.61-3.75,1.85-4.99,3.28c0.54,0.84,2.19,0.55,3.27,0.55
		c2.63,0.01,10.83,0.29,12.25-0.21v-0.68c-3.28-1.13-4.35,0.39-6.12-4.41l-5.65-15.51c-0.52-1.42-2.28-7.04-3.05-7.66
		c-1.25,0.3-1.43,1.88-4.18,2.4c-0.95,0.18-1.08,0.07-1.42,0.8c0.46,0.54,0.1,0.25,0.89,0.53c0.49,0.18,0.76,0.29,1.08,0.51
		c0.21,1.32-3.91,11.24-4.64,13.03c-1.75,4.3-2.35,9.84-7.74,10.07c-3.4,0.14-4.47-1.04-4.56-4.37l0.01-17.81
		c0.11-1.36,0.95-1.96,2.12-2.42c1.13-0.45,2.87-0.25,3.65-0.93c-0.28-1.3-1.98-0.85-4.59-0.85c-6.74,0-5.43-1.05-7.63,3.89
		C374.79,129.34,374.1,130.64,373.5,132.05z"/>
	<path class="st2" d="M52.29,42.58c0.06,0.01,0.42,0.07,0.51,0.12c0.58,0.34,0.06-0.18,0.39,0.5c-0.31,0.72,0.1,0.17-0.47,0.43
		c-0.04,0.02-0.1,0.01-0.14,0.03c-0.7,0.27-0.23-0.8-0.96,0.92c1.53-0.02,2.59-1.2,2.6-1.24c0.03-0.1,0.1-0.1,0.16-0.14
		c-0.04,1.2,0.05,0.5-0.53,1.41l-0.26,0.36l0.84,0.34c0.52,0.4,0.09-0.25,0.44,0.65l1.88-0.59c-0.6,1.08-0.31,0.21-0.28,1.04
		c0.44-0.12,4.2-1.87,6.59-2.65c7.39-2.41,16.48-1.65,23.2,1.15c7.62,3.18,15.2,10.01,18.29,17.7c0.99-0.14,1.16-0.39,1.72,0.35
		l0.37,0.51c0.03,0.03,0.07,0.09,0.1,0.12l0.21,0.22c0.52-0.36,1.47-1.42,1.86-1.5c-1.05-0.11-0.65,0.02-1.02-0.53
		c-1.43-0.83,0.67-2.22,1.15-2.52c-0.52-2.9-6.48-9.92-9.05-12.16c-3.98-3.47-7.38-5.64-13.23-7.93
		C75.24,34.72,61.11,37,52.29,42.58z"/>
	<path class="st2" d="M50.27,72.4l-0.24,0.23c-0.04,0.04-0.23,0.19-0.28,0.23l2.03,1.59l0.16-1.25c1.09-0.5,0.93-0.32,2.01,0.01
		c1.37-5.11,3.14-8.28,6.28-10.91c7.67-6.43,17.37-6.45,25.33-0.26c2.47,1.92,4.25,4.63,5.49,7.53c0.48,1.12,0.65,2.3,1.09,3.31
		l1.28-0.06c0.64,0.17,0.95,0.21,1.68,0.06l-0.3-0.78c0.08-1.72,0.62-1.8,1.75-2.55c-0.08-2.03-2.42-5.7-3.36-7.03
		c-7.92-11.23-23.69-13.99-35.53-4.99c-3.03,2.3-8.15,8.92-8.16,12.16C49.86,70.02,52.25,71.88,50.27,72.4z"/>
	<path class="st0" d="M114.33,56.72c0.32,0.36-0.05,0.14,0.66,0.45c-0.62,0.46-1.48,1.05-1.9,1.56c-0.26-0.35-0.05-0.14-0.24-0.48
		c-0.23-0.42,0.05-0.08-0.26-0.41c0.01,1.85-0.72,1.86-1.73,2.7c-0.83,0.69-1.63,1.74-3.05,1.25c0.38,0.55-0.02,0.42,1.02,0.53
		c-0.39,0.08-1.35,1.13-1.86,1.5l-0.21-0.22c-0.03-0.03-0.07-0.08-0.1-0.12l-0.37-0.51c0.32,1.52-0.88,2.01-1.76,2.7
		c-0.84,0.65-1.23,1.43-2.63,1.52c0.25,0.31,0,0.01,0.3,0.33c0.02,0.02,0.09,0.14,0.11,0.11c0.02-0.03,0.08,0.07,0.11,0.11
		c-1.6,0.93-1.75,1.91-2.13,1.29c-0.91,0.62-1.27,1.25-2.26,2c-0.49,0.38-0.6,0.46-1.11,0.87c-0.42,0.34-0.69,0.5-1.44,0.49
		l0.79,0.46c-0.38,0.28-0.78,0.6-1.22,0.95c-0.15,0.12-0.56,0.47-0.68,0.54c-0.62,0.35-0.21,0.39-0.43-0.05
		c-0.05,0.04-0.1,0.09-0.13,0.12l-2.12,1.75c-0.77,0.57-1.21,0.97-2.07,1.52c0.14,0.3,0.09,0.31,0.2,0.64
		c1.17-0.31,1.01-0.67,1.68-1.01c0.74-0.38,1.45,0.53,1.62,0.68c0.88-0.2,0.7,0.01,0.79-0.79C94.49,77.74,94.54,78,95.1,78
		l-0.79,0.4c1.36,0.09,0.59-0.18,0.99,0.59c-0.3,0.6,0.17,0.21-0.31,0.46c-0.69,0.36-0.06,0.1-0.28-0.07
		c0.67,0.58,0.66,0.01,0.66,0.01c0.2-0.25,0.13-0.49,0.13-0.81c1.84,0,1.19-0.2,1.19-0.2c0.44,0.32,0.25,0.1,0.31,0.63l14.24-11.98
		c0.72-0.6,1.29-1.37,2.45-1.26c1.92,1.42,0.05,2.8-0.9,3.44c0.3,0.22,0.41-0.8,0.25,0.75c2.44-2.38,2.39,4.58,2.42,5.84
		c0.03,1.46,0.04,2.98-0.11,4.43c-0.13,1.22-0.5,3.14-0.38,4.14c0.19,0.79-0.04,1.91-0.48,2.7l0.55,0.67
		c0.35,0.48,0.79,1.05,0.56,1.71c0,0,0.12,0.6-0.72,0.39c0.05,1.23-0.41,0.86,0.59,0.99l-0.59,1.38c1.27-0.02,0.83-0.18,1.97-0.39
		c0,1.5,0.11,1.39-0.51,2.38c-0.04,0.06-0.24,0.37-0.24,0.38c-1.41,2.07-0.24,1.4-0.04,1.59c0-0.01-0.37-0.03,0.67-0.67
		c0.66-0.7,1.68-4.38,2.17-5.96c0.76-2.51,0.94-4.4,1.42-7.12c0.16-3.82,0.46-6.67,0.01-10.57c-0.11-2.99-1.42-8-2.49-11.04
		l-0.11-0.29c-0.17-0.45-0.03-0.05-0.18-0.43c-0.46-1.17-1.19-2.5-1.44-3.53L114.33,56.72z"/>
	<path class="st2" d="M43.9,67.13l-0.34,0.47c-0.02,0.04-0.06,0.11-0.1,0.16l1.81,1.38c0.05-0.09,0.13-0.38,0.17-0.45
		c0.28-0.49,0-0.22,0.45-0.57c0.12-0.8,1.23-0.29,1.75-0.2c0.93-3.79,4.41-8.2,6.45-10.18c2.82-2.74,5.77-4.8,10.39-6.42
		c7.69-2.7,16.5-1.47,23.29,2.97c0.9,0.59,1.81,1.41,2.68,1.8c0.18-0.48,0.17-0.36,0.26-0.68l0.19-0.73
		c0.02-0.06,0.03-0.14,0.06-0.21c0.7,0.34,0.36-0.48,0.39,0.43l-0.08,0.36c-0.02,0.06-0.26,0.35-0.31,0.4l1.18-0.59
		c-0.16-0.2-0.35-0.38-0.36-0.39l-0.43-0.6c0.87,0.27,0.81,0.17,1.18,0c-0.26-0.49-0.63-0.36-0.79-0.99
		c0.06-0.03,0.16-0.13,0.19-0.06c0.03,0.06,0.14-0.05,0.18-0.04c0.61,0.1-0.17-0.42,0.38,0.15c0.76,0.79-0.51-0.08,0.35,0.7
		c0.4,0.37,0.04,0.28,0.85,0.19l1.02-0.35c-0.39-0.63,0.2-0.27-1.15-0.37c-0.67-0.05,0.27-0.07-0.63-0.02
		c0.04-0.99-0.15-0.4,0.29-1.09c0.23,0.16,0.29,0.35,0.92,0.37c-0.31-0.52-0.18-0.36-0.7-0.8l-2.04-1.51
		c-0.92-0.6-1.95-1.29-3.06-1.88c-12.17-6.47-27.05-4.58-37.03,4.6c-2.43,2.24-7.8,8.62-8.01,11.58c0.44,0.4,1.11,0.83,1.28,1.32
		C44.84,66.63,44.47,67.14,43.9,67.13z"/>
	<path class="st2" d="M56.71,77.47L55.98,78c0.47,0.46,1.47,1.26,2.04,1.7l1.54,1.26c0.78,0.4,0.23,0.3,0.5-0.04
		c-0.42-0.54-0.4-0.47-0.3-1.33c0.51-0.29,0.64-0.28,1.36-0.33c-0.12-1.51-0.38-6.41,1.16-7.41c1.09-0.71,1.69,0.02,1.99,0.74
		c0.5,0.02,0.48-0.27,0.83-0.86c0.33-0.55,0.47-0.7,0.9-1.25c-2.69-0.17-2.32-2.24,1.07-4.1c0.63-0.35,2.31-1.11,3.16-1.25
		c1.89-0.32,2.2,1.12,1.43,2.35l2.8,0.01c-1.29-1.9,0.25-3.59,4.45-1.15c3.75,2.18,3.86,4.08,1.18,4.17
		c0.56,0.72,0.96,1.84,1.72,2.21c0.58-1.4,2.17-1.97,2.97,1.19c0.6,2.34,0.07,3.51,0.28,5.4l1.32,0.1l0.07,0.53l0.53,0.54
		c1.04-0.72,1.87-1.72,2.82-2.13c-0.1-0.33-0.05-0.34-0.2-0.64c-0.66,0.01-1.11-0.23-1.08-1.06c0.04-0.8,0.53-0.9,1.05-1.37
		c0.52-0.48,0.55-0.57,0.41-1.42c-2.19-12.59-18.42-19.72-29.49-8.69c-1.25,1.25-2.73,3.41-3.57,5.72
		c-1.73,4.75-0.64,4.27-0.03,5.02C57.47,76.59,57.35,77.14,56.71,77.47z"/>
	<path class="st1" d="M205.19,145.01c-0.17-0.25-0.2-0.34-0.37-0.61l-11-17.26c-1.89-2.96-0.65-1.56-1.02-2.94
		c-1.01-0.43-6.78-0.16-8.76-0.16c-2.13,0-1.96,0.21-2.18,1.01c0.82,0.09,3.09,0.34,3.86,0.69c1.4,0.66,1.26,1.62,1.26,3.26
		c-0.01,3.1,0,6.2,0,9.29c0,5.57,0.94,9.02-2.48,11.33c-2.01,1.36-2.91,0.03-2.81,1.7c0.5,0.17,11.08,0.62,12.04-0.18
		c-0.15-0.76-0.23-0.71-1.19-0.81c-1.39-0.15-2.85-0.33-3.69-1.84c-0.9-1.63-0.66-4.59-0.66-6.64c0-4.37-0.35-10.41,0.05-14.58
		l14.57,22.09c2.89,4.62,1.76,2.87,4.61,1.26c1.71-0.97,1.81-0.61,2.73-1.07c0.03-0.02,0.11-0.02,0.13-0.09
		c0.02-0.07,0.09-0.06,0.13-0.1c-0.55-0.79-0.67-0.36-1.53-0.74c-0.4-0.17-0.84-0.61-1.1-0.88c-1.04-1.06-0.72-1.68-0.72-3.52
		c0-2.58-0.25-14.86,0.31-16.4c1.3-3.6,4.13-1.76,4.94-3.18c-0.29-0.61-0.29-0.6-1.19-0.66c-0.45-0.03-1.13,0.01-1.6,0.01
		c-2.52,0.02-8.46-0.47-9.21,0.65c0.84,1.29,2.95-0.15,4.69,1.95c1.13,1.36,0.84,3.88,0.84,5.76c0,4.42,0.1,8.96-0.02,13.36
		L205.19,145.01z"/>
	<path class="st1" d="M130.87,153.85c1.27-0.98-0.18-2.5,3.76-2.15c1.73,0.15,3.54,0.66,5.32,0.7c3.77,0.09,6.9-1.53,8.5-3.42
		c1.92-2.27,3.07-5.28,1.16-8.66c-3.4-6-10.82-4.42-15.76-7.77c-2.96-2.01-3.31-4.94-0.05-7.13c3.78-2.53,10.07-0.38,12.54,2.94
		c1.29,1.73,1.25,3.15,2.45,3.17c0.33-1.2-2.03-5.95-2.8-7.76c-0.38-0.89-0.53-1.67-1.29-2.04c-1.45,0.85,0.21,2.8-3.71,1.91
		c-2.06-0.47-3.04-0.69-5.25-0.44c-7.63,0.87-11.28,8.94-5.9,12.98c3.7,2.78,14.35,3.57,16.08,7.84c2.83,6.97-9.12,11.3-16.61,2.19
		c-0.62-0.76-1.81-2.82-2.89-2.93C126.1,144.33,130.13,153.47,130.87,153.85z"/>
	<path class="st1" d="M241.89,136.46c-0.24-1.44-0.08-4.26-0.08-5.86c0-1.54-0.43-4.04,0.87-4.8c2.5-1.46,7.75-0.26,9.24,1.16
		c3.26,3.1,2.12,9.51-4.43,9.58C246.12,136.55,243.07,136.68,241.89,136.46z M245.76,150.31c-1.78-0.22-3.7-1.15-3.91-3.16
		c-0.2-1.9-0.16-7.4,0.01-9.33c4.79-0.63,8.33,0.97,12.87-1.56c3.32-1.84,5.06-5.49,1.89-9.08c-2.65-3.01-6.17-3.18-11.31-3.17
		l-10.87,0.04c-1.34,0-2.6-0.4-2.61,1.04c3.21,0.8,5.4-0.74,5.38,3.92c-0.01,2.55,0.17,17.29-0.1,18.47
		c-0.26,1.13-1.29,2.05-2.08,2.48c-1.6,0.87-3.24-0.28-3.18,1.4c1.16,0.34,6.23,0.17,7.92,0.17c1.51,0,6.64,0.45,7.49-0.38
		C247.12,150.28,246.83,150.44,245.76,150.31z"/>
	<path class="st1" d="M181.66,125.06c-0.17-1.63-2.28-1.04-5.73-1.02c-2.74,0.01-5.24-0.47-5.51,0.85c1.21,0.87,5.44-0.23,5.45,4.72
		c0.01,3.36-0.01,6.73-0.01,10.09c0,3.32,0.58,6.79-1.41,8.81c-1.53,1.55-3.95,2.94-7.02,3c-3.06,0.06-5.75-1.41-6.74-3.48
		c-1.06-2.23-0.7-6.51-0.7-9.31c0-3.43-0.01-6.86-0.01-10.29c0.01-3.78,3.92-2.65,6.74-3.27c-0.11-0.96-0.34-1.07-1.44-1.13
		l-13.87,0.03c-0.86,0.04-1.18,0.12-1.11,0.97c1.05,0.58,3.4,0.11,4.59,0.94c1.18,0.83,0.87,2.96,0.87,4.44c0,3.62,0,7.25,0,10.88
		c0,4.37-0.32,6.16,2.31,8.59c3.86,3.56,12.22,3.57,16.44,0.27c2.65-2.07,2.58-4.16,2.58-8.26c0-3.62,0.01-7.25,0-10.88
		C177.08,126.43,177.71,125.94,181.66,125.06z"/>
	<path class="st3" d="M349.27,149.91c0.29,0.78,0.16,0.15,0.25,1.05c-1.18,0.92-3.9-0.07-5.24,0.35c0.24,0.13,0.01,0.07,0.48,0.16
		c0.22,0.04,0.33,0.04,0.56,0.05c2.93,0.13,16.67,0.08,17.41-0.15c-0.27-2.12-3.26,0.04-4.57-2.97c-0.87-2.02-0.66-4.47-0.66-6.74
		c0-4.86-0.12-9.88,0.02-14.72c0.04,0.04,0.08,0.1,0.11,0.13l1.23,2.63c1.37,3.18,7.24,18.09,8.01,18.65
		c1.12-0.47,0.62-0.98,2.16-2.55c1.75-1.77,2.18-0.98,2.56-2.18l-1.83-0.57c0.32-1.73,4.04-8.44,4.86-10.84l-1.12-0.16l-4.46,9.42
		c-1.08-1.26-7.31-17.21-8.1-17.46c-1.84,0-3.69,0.02-5.53,0.03c-2.73,0.01-4.35-0.43-4.46,1.02c1.34,1.14,5.29-1.44,5.33,3.95
		c0.02,2.85,0.32,16.95-0.44,18.63C354.32,151.02,351.2,150.28,349.27,149.91z"/>
	<path class="st4" d="M326.21,164.56c3.56-0.79,6.51,0.69,7.28,4.77c0.67,3.55,0.11,8.19-2.15,9.75c-1.31,0.9-3.48,1.28-5.28,0.8
		c-1.89-0.51-1.55-2.61-1.55-4.6c0-2.04,0-4.09,0-6.13C324.5,167,324.1,165.03,326.21,164.56z M331.09,164.21
		c-1.43-0.51-11.26-1.14-12-0.2c0.93,1.25,2.84-0.48,3.12,2.56l-0.02,11.48c-0.33,2.85-2.06,1.19-3.11,2.37
		c0.51,0.6,1.87,0.37,2.92,0.37c1.12,0,2.24,0,3.36,0c2.02,0,4.11,0.05,5.9-0.6C338.11,177.68,338.16,166.72,331.09,164.21z"/>
	<path class="st3" d="M192.28,164.27c-0.77-1.02-5.39-0.76-5.8-0.26c0.53,0.67,1.4,0.37,2.19,0.68c0.89,0.35,0.62,1.02,0.61,2.08
		c-0.03,2.24,0.16,9.14-0.19,10.8c-0.24,1.18-0.65,2.01-1.77,2.39c-0.69,0.24-0.69,0.09-1,0.46c0.29,0.36-0.28,0.19,0.68,0.37
		l2.96,0c0.87,0,2.85,0.34,3.43-0.37c-0.82-0.91-2.14-0.03-2.92-1.89c-0.7-1.69-0.5-11.14-0.41-13.07
		c1.02,1.5,9.93,14.98,10.97,15.9l2.58-2.13c-2.61-1.36-2.14,0.83-2.14-8.11c0-1.65-0.3-5.31,1.3-6.36
		c0.58-0.38,0.44-0.19,0.86-0.33c0.94-0.3,0.33,0.24,0.78-0.43c-0.48-0.54-6.51-0.63-7.05,0c0.77,1.2,3.26-0.69,3.3,4.74
		c0.02,2.38,0.18,5.82-0.07,8.09l-5.6-8.38C194.12,167.15,193.21,165.51,192.28,164.27z"/>
	<path class="st4" d="M180.21,175.66c0.96-0.06,0.72-0.44,0.7-1.55c-0.03-1.48,0.19-5.58-0.23-6.27c-1.07,0.42-0.03,2.32-1.78,3.08
		c-1,0.44-3.36,0.3-4.6,0.28c0-3.84-1.03-7.36,3.61-6.81c4.08,0.49,5.01,3.33,6.41,3.98l-0.12-1.1l-2.17-4.76
		c-1.11,0.45-0.47,0.91-2.5,1.1c-2.46,0.24-9.89-0.41-10.64,0.4c0.9,1.19,2.84-0.54,3.12,2.56l-0.02,11.49
		c-0.33,2.9-2.19,1.23-3.1,2.37c0.52,0.71,2.52,0.37,3.49,0.37c2.28,0,7.76-0.41,8.89,0.81l0.79,0.97c0.57-0.58,3.18-6.08,3.18-7.1
		c-0.79,0.26-1.01,0.88-1.47,1.5c-1.34,1.84-3.27,3.01-5.85,3.07c-4.31,0.1-3.74-1.76-3.61-8.14
		C178.06,171.89,180.1,171.48,180.21,175.66z"/>
	<path class="st4" d="M404.97,164.24c-0.63-0.87-5.37-0.78-5.83-0.23c0.57,0.71,1.73,0.29,2.74,0.99c0.25,2.65,0.05,6.33,0.05,9.1
		c0,7.28-1.7,5.02-2.94,6.33c0.62,0.74,2.64,0.37,3.63,0.37c0.96,0,2.87,0.35,3.44-0.37c-0.95-0.99-2.07-0.03-2.86-1.77
		c-0.76-1.67-0.59-11.33-0.39-13.04c1.01,0.89,9.72,14.83,10.87,15.75l2.66-2.21c-2.86-0.73-2.2-0.31-2.2-8.02
		c0-8.59,1.95-5.61,2.95-7.12c-0.36-0.38-0.27-0.37-1.61-0.36c-1.58,0.01-4.91-0.29-5.46,0.36c1.08,1.33,3.2-0.72,3.34,4.74
		c0.07,2.64,0.01,5.37,0,8.02l-0.59-0.57c-0.17-0.21-0.19-0.29-0.31-0.48l-2.03-3.1c-0.95-1.42-1.84-2.71-2.78-4.14
		c-0.46-0.71-0.92-1.44-1.41-2.15C405.79,165.64,405.4,164.82,404.97,164.24z"/>
	<path class="st4" d="M224.16,163.66c-1.01,0-1.13-0.18-1.38,0.57c3.74,1.42,3.18-1.44,3.18,11.25c0,6.66-1.81,3.34-3.18,4.94
		c0.25,0.31-0.06,0.21,0.61,0.35c0.18,0.04,0.75,0.03,0.96,0.03c1.98-0.01,8.02-0.12,9.42,0.14c1.56,0.29,1.44,0.56,1.99,1.67
		c0.78-0.37,2.22-3.99,2.85-5.35c0.65-1.41,0.71-1.23,0.38-1.77c-1.1,0.51-2.25,4.51-7.31,4.56c-2.22,0.03-3.3-0.26-3.45-2.49
		c-0.12-1.75-0.02-3.79-0.02-5.57c5.93-1.08,5.53,1.98,5.86,3.07c0.31,1.05-0.06,0.47,0.67,0.58c0.05-1.8,0.29-6.7-0.1-7.84
		c-1.19,0.49-0.05,2.2-1.81,3.09c-0.95,0.48-3.35,0.32-4.63,0.32c0-4.65-0.84-7.38,3.66-6.81c4.23,0.54,5.15,3.59,6.31,3.96
		c0.06-1.21-1.69-4.45-2.1-5.79c-1.15,0.21-0.67,0.85-2.61,1.04L224.16,163.66z"/>
	<path class="st3" d="M305.74,164.26c-0.73-0.96-5.36-0.78-5.79-0.25c0.5,0.64,1.38,0.38,2.21,0.67c0.9,0.32,0.62,0.9,0.61,2.09
		c-0.04,3.37,0.63,11.27-1.18,12.81c-0.5,0.43-0.5,0.28-0.97,0.42c-1.08,0.34-0.63-0.1-0.73,0.61c0.79,0.38,6.33,0.28,7.02-0.03
		c-0.7-1.59-3.36,1.1-3.35-5.9c0.01-2.91-0.15-6.24,0.04-9.1c1.8,1.74,9.72,15.25,11.14,15.81c0.4-0.36,0.72-0.79,1.14-1.16
		c0.53-0.47,0.87-0.42,1.3-0.95c-1.86-1.07-2.25,0.16-2.23-2.81c0.02-2.22-0.19-8.14,0.28-9.93c0.54-2.06,1.66-1.91,2.33-2.25
		c0.45-0.22,0.05,0.16,0.36-0.28c-0.3-0.34,0.12-0.2-0.68-0.34l-4.94-0.02c-0.98,0-1.09-0.01-1.43,0.36c0.63,0.92,1.74,0,2.62,1.38
		c1.11,1.73,0.71,8.97,0.68,11.36C313,175.96,307.29,166.3,305.74,164.26z"/>
	<path class="st5" d="M37.79,61.89c-0.32,0.33,0.09,0.22-0.74,0.44c0.55,0.45,1.67,1.29,2.03,1.71c0.01-0.36,0.12-0.78,0.41-1.04
		c0.43-0.9,1-0.53,1.85-0.19c0.88-1.12,2.01-4.29,4.37-7.14c1.93-2.34,2.74-3.15,4.84-5.04l0.75-0.79
		c-0.46-0.03-0.32-0.05-0.65-0.19l-0.61-0.34c-0.03,0.06-0.08,0.11-0.11,0.15l-0.23,0.3c-0.04,0.05-0.07,0.09-0.11,0.14
		c-0.7,1.02-0.12,0.88-1.03,0.89c0.47-1.24,0.2-0.8,0.17-1.28c-0.01-0.11-0.04-0.14-0.07-0.2c-1.55,0.07-0.32-0.01-0.76,0.38
		l-0.62,0.61c-0.04-0.06-0.11-0.12-0.12-0.18c-0.02-0.06-0.08-0.11-0.09-0.19l0.21-1.01l-0.5,0.26c-0.74,0.43-0.05,0.88-0.42,0.27
		c-0.01-0.02-0.04,0.05-0.07,0.06c-0.33-0.49,0.07-0.12-0.59-0.59c0.72-0.39,0.66-0.46,1.18-0.99c-0.42-1,0.06-0.18-0.68-0.81
		c-1.47,1.07-4.02,4.03-5.18,5.63c-0.9,1.25-3.62,5.08-3.97,6.62C37.65,59.9,39.42,61.32,37.79,61.89z"/>
	<path class="st3" d="M268.87,164.17c1.98-0.58,4.27-0.15,5.51,1.02c1.19,1.12,1.69,3.01,1.85,4.98c1.08,13.38-7.6,10.63-9.26,9.15
		c-1.23-1.1-1.64-2.91-1.85-5.09C264.76,170.6,264.85,165.35,268.87,164.17z M278.91,173.9c1.58-12.97-14.82-14.21-16.47-3.45
		c-0.86,5.6,2.16,9.85,6.49,10.68C274.24,182.15,278.35,178.47,278.91,173.9z"/>
	<path class="st3" d="M387.27,164.18c1.98-0.62,4.32-0.14,5.53,0.97c1.14,1.04,1.7,2.99,1.86,5.01c1.07,13.67-7.81,10.49-9.26,9.11
		C382.86,176.85,381.88,165.88,387.27,164.18z M380.8,173.5c0.43,4.71,4.21,8.33,9.56,7.7c10.22-1.21,9.34-19.39-2.5-17.92
		C383.29,163.84,380.3,168.07,380.8,173.5z"/>
	<path class="st4" d="M247.16,164.01c0.92,1.23,2.85-0.48,3.12,2.56c0.16,1.82,0.07,3.9,0.07,5.74c0,1.8,0.11,3.98-0.09,5.74
		c-0.32,2.87-2.25,1.25-3.11,2.37c0.76,1.06,6.7-0.05,9,0.39c-0.07-0.77,0.31-0.7-0.94-0.81c-3.07-0.27-2.79-0.94-2.61-7.93
		c1.42,0,3.11-0.23,4.2,0.6c0.43,0.33,0.72,0.79,0.88,1.48c0.51,2.2-0.06,1.44,0.67,1.7c0.35-0.67,0.35-7.22,0-7.88
		c-0.73,0.3-0.45,0.77-0.68,1.66c-0.58,2.22-2.88,1.71-5.08,1.71c-0.07-4.58-0.76-7.35,3.19-6.95c3.67,0.37,5.01,3.6,6.14,3.98
		c-0.05-0.95-1.81-5.37-2.38-5.87c-0.98,0.51-0.53,0.92-2.37,1.1C254.83,163.83,247.83,163.22,247.16,164.01z"/>
	<path class="st3" d="M129.88,182.2c0.85-1.12,0.38-1.48,2.38-1.22c1.15,0.15,1.94,0.33,3.13,0.16c5.18-0.71,7.93-8.09,0.1-10.29
		c-1.84-0.52-3.73-0.87-5.07-1.85c-3.64-2.68,1.31-6.96,5.4-4.21c2.66,1.79,2.03,2.76,3.42,3.43c-0.01-1.17-1.69-4.79-2.16-5.85
		c-1.2,0.6-0.25,1.37-2.39,1.14c-2.36-0.25-5.94-0.47-7.01,3c-1.51,4.85,3.47,5.78,6.73,6.62c1.78,0.45,3.65,1.09,3.99,2.95
		c0.4,2.14-0.85,3.74-2.5,4.21c-2.02,0.58-4.23-0.28-5.42-1.25c-1.77-1.45-2.46-3.14-3.3-3.31c-0.14,0.89,0.8,2.6,1.18,3.47
		C128.76,180.13,129.17,181.69,129.88,182.2z"/>
	<path class="st3" d="M342.34,173.54c0.42-1.47,2-5.55,2.66-6.67l2.39,6.71L342.34,173.54z M346.22,180.42
		c0.22,0.24,0.21,0.31,0.86,0.38l7.95-0.13c-0.23-0.8-0.1-0.53-1.14-0.73c-0.47-0.09-0.84-0.16-1.21-0.38
		c-1.31-0.79-4.26-9.93-4.95-11.85c-0.56-1.57-1.42-3.29-1.7-4.77c-1.08,0.32-0.71,0.46-1.49,1.09c-0.59,0.47-0.88,0.42-1.41,0.96
		l0.4,0.4c0.03,0.03,0.08,0.06,0.12,0.08c0.28,0.17,0.48,0.21,0.69,0.3c-0.07,0.83-4.15,11.06-4.93,12.3
		c-0.85,1.35-1.39,1.55-2.44,1.9c-1.18,0.39-0.59-0.08-0.81,0.73c1.07,0.31,5.63,0.22,7.05,0c-0.23-0.77,0.25-0.44-0.83-0.72
		c-0.43-0.11-0.43,0.02-0.95-0.22c-1.9-0.9,0.27-4.88,0.62-5.38l5.59,0c0.53,0.77,1.71,3.84,1.23,5.04
		c-0.45,0.67-1.59,0.5-2.12,0.66l-0.41,0.23C346.32,180.28,346.26,180.38,346.22,180.42z"/>
	<path class="st4" d="M284.44,163.66c-1.1,0-3.46-0.4-4.12,0.35c0.95,1.39,2.91-0.9,3.01,3.76c0.05,2.15,0,4.37,0,6.53
		c0,2.49-0.26,3.94,1.2,5.44c1.2,1.23,2.93,1.53,5.05,1.53c10.56,0,3.68-11.8,7.07-16.12c0.86-1.1,1.42-0.27,2.01-1.13
		c-0.02-0.02,0.01-0.21-0.61-0.33c-0.19-0.04-0.73-0.03-0.95-0.03c-1.56,0.01-4.98-0.29-5.48,0.36c0.84,1.13,2.59-0.27,3.16,2.9
		c0.28,1.56,0.14,4.29,0.14,6c0,4.29,0.17,7.33-4.54,7.49c-5.44,0.18-4.84-2.84-4.84-7.49c0-1.92-0.12-4.27,0.03-6.14
		c0.29-3.5,2.3-1.54,3.14-2.76C288.11,163.23,285.49,163.66,284.44,163.66z"/>
	<path class="st2" d="M94.11,56.06c0.77,0.32,0.32,0.62,1.39,0.81c1.14,0.21,1.12-0.41,1.13-0.42l-0.94-0.14
		c-0.62-0.18-1.14-0.71-1.14-1.42c0-1.63,0.04-0.56,0.35-1c0.98,0.45,0.29,0.69,0.68,1.36c0.32,0.55,0.24-0.08,1.02,0.46
		c0.01,0.01,0.33,0.39,0.54,0.54c0.52,0.38,0.36-0.51,0.33,1.59c0.58,0.26,0.49,0.33,0.79,0.72c-0.91-0.27-0.24-0.3-1.19-0.12
		c-0.13,0.74-0.03,0.47-0.41,1.09l-0.78-0.7c-0.06,0.03-0.12,0.09-0.15,0.12c-0.03,0.03-0.1,0.08-0.14,0.11
		c-0.38,0.31-0.35,0.66-1.05,0.14c-0.38-0.28-1.15-0.98-1.22-1.37l1.18-0.2C94.21,56.08,93.92,57.53,94.11,56.06z M90.44,56.09
		c0.26,0.6,4.56,3.64,7.31,9.79c1.09,2.44,0.31,1.6,1.13,1.81c1.13,0.29,1.24-0.09,1.4,1.34c0.38,0.61,0.53-0.37,2.13-1.29
		c-0.04-0.03-0.1-0.14-0.11-0.11c-0.02,0.03-0.09-0.08-0.11-0.11c-0.3-0.32-0.05-0.03-0.3-0.33c-2.38-0.47,0.78-2.88,0.88-3.03
		c-0.86-2.21-2.42-4.84-3.71-6.53c-1.01-1.32-2.92-3.55-4.24-4.66l-0.67-0.4c-0.63-0.02-0.7-0.21-0.92-0.37
		c-0.44,0.69-0.25,0.1-0.29,1.09c0.9-0.05-0.04-0.03,0.63,0.02c1.35,0.11,0.76-0.26,1.15,0.37l-1.02,0.35
		c-0.81,0.09-0.45,0.18-0.85-0.19c-0.86-0.79,0.41,0.09-0.35-0.7c-0.55-0.57,0.24-0.05-0.38-0.15c-0.04,0-0.15,0.1-0.18,0.04
		c-0.03-0.07-0.13,0.03-0.19,0.06c0.16,0.63,0.53,0.5,0.79,0.99c-0.37,0.17-0.32,0.27-1.18,0l0.43,0.6c0.01,0.01,0.2,0.19,0.36,0.39
		l-1.18,0.59c0.05-0.05,0.29-0.33,0.31-0.4l0.08-0.36c-0.03-0.91,0.31-0.09-0.39-0.43c-0.03,0.06-0.04,0.15-0.06,0.21l-0.19,0.73
		C90.61,55.73,90.62,55.61,90.44,56.09z"/>
	<path class="st3" d="M353.05,168.11c1.37-0.23,1.19-2.12,4.23-3.41c3.6-1.53,3.25,1.2,3.24,3.85c0,2.56,0.04,5.16,0,7.72
		c-0.05,2.68-0.09,3.53-2.18,3.73c-1.44,0.14-1.12,0.29-1.24,0.71c1.15,0.15,8.1,0.26,8.96-0.1c-0.14-0.62,0.13-0.44-0.77-0.58
		c-0.84-0.13-1.95,0.1-2.37-1.4c-0.18-0.63-0.72-13.26,0.38-14.05c1.33-0.95,4.37,0.72,5.58,2.35c0.46,0.61,0.58,1.03,1.34,1.2
		c0.06-0.87-1.74-5.04-2.37-5.62c-1.07,0.64-0.46,0.92-2.56,1.1c-1.21,0.1-2.54,0.05-3.77,0.05c-7.24,0-4.23-0.6-6.39-1.11
		C354.75,163.86,352.91,167.05,353.05,168.11z"/>
	<path class="st1" d="M0,46.49c0.21,0.84,3.27,6.64,3.78,7.15l7.91-2.04l-3.71-7.17L0,46.49z"/>
	<polygon class="st1" points="134.37,51.48 142.32,53.69 146.15,46.6 138.2,44.4 	"/>
	<path class="st3" d="M158.19,176.06c-0.88,0.06-0.62-0.03-1.05,0.78c-0.22,0.42-0.34,0.63-0.59,0.99
		c-2.75,3.9-11.73,4.57-11.5-5.52c0.09-3.88,1.14-7.49,4.46-8.21c5.19-1.14,6.7,4.22,8.17,4.2c-0.08-0.84-1.86-4.99-2.29-5.87
		c-1.04,0.45-0.5,1.24-2.13,1.1c-1.05-0.09-1.73-0.37-3.02-0.33c-9.93,0.27-10.8,17.08-0.19,18.02
		C154.75,181.64,158.35,178.52,158.19,176.06z"/>
	<path class="st3" d="M221.79,176.06c-1.33,0.14-0.96,0.79-1.73,1.84c-2.62,3.57-11.65,4.8-11.48-5.59
		c0.06-3.84,1.12-7.42,4.39-8.19c5.15-1.22,6.71,4.02,8.21,4.24c-0.06-0.89-1.91-5.29-2.31-5.92c-0.76,0.47-0.32,0.51-0.91,0.91
		c-0.37,0.25-0.73,0.23-1.24,0.18c-1.11-0.12-1.74-0.37-3.04-0.33c-5.74,0.21-8.96,6.31-7.31,12.1
		C208.85,183.98,220.99,182.28,221.79,176.06z"/>
	<path class="st3" d="M71.71,68.7c4.89-0.82,8.89,2.69,9.56,6.74c0.85,5.14-2.75,9.02-6.85,9.71C63.59,86.98,60.68,70.56,71.71,68.7
		z M66,70.48c-0.43,0.55-0.57,0.7-0.9,1.25c-0.36,0.59-0.34,0.88-0.83,0.86c0.22,1.21-2.14,5.16,0.92,9.64
		c1.46,2.14,4.03,4.14,7.78,4.19c5.16,0.06,9.01-3.91,9.51-8.4c0.29-2.58-0.69-3.74-0.66-5.3c-0.76-0.37-1.16-1.48-1.72-2.21
		c-1.67-1.67-2.83-2.26-5.63-3.02l-2.8-0.01c-1.3,0.31-2.2,0.57-3.29,1.19c-0.48,0.28-0.94,0.57-1.31,0.87
		C66.54,69.96,66.56,70.11,66,70.48z"/>
	<path class="st3" d="M377.34,163.66c-1.1,0.01-5.87-0.34-6.52,0.35c0.95,1.29,2.79-0.57,3.11,2.61l-0.01,11.34
		c-0.12,1.05-0.24,1.59-1.1,1.9c-1.33,0.48-1.69-0.31-2,0.77c1.01,0.33,5.04,0.14,6.72,0.16c2.26,0.03,1.64-0.1,1.84-0.37
		c-0.95-1.11-2.85,0.59-3.14-2.61l0.03-11.32c0.39-3.13,2.16-1.28,3.11-2.48C378.93,163.49,378.24,163.65,377.34,163.66z"/>
	<path class="st3" d="M167.54,164.29c0.45-0.19,0.07,0.1,0.37-0.28c-0.51-0.61-3.04-0.35-4.43-0.35c-2.36,0-3.82-0.39-4.12,0.55
		c1.68,0.7,2.87-0.37,3.1,2.55l-0.05,11.45c-0.11,0.86-0.3,1.37-1.05,1.64c-1.39,0.51-1.81-0.3-1.92,0.78
		c0.71,0.31,7.45,0.23,8.49,0.07c-0.24-0.77,0.03-0.56-1.07-0.7c-2.87-0.36-2.11-2.54-2.11-7.7
		C164.74,162.4,164.97,165.39,167.54,164.29z"/>
	<path class="st3" d="M67.2,9.29c1.24-0.2,3.2-0.29,4.41-0.02c-0.19-0.71,0.02-0.15-0.5-0.6c-0.63-0.54-0.08,0.34-0.5-0.44
		c-0.09-0.17-0.06,0.14-0.18-0.43l-0.07-1.38c-0.02-0.76-0.12-0.98,0.14-1.69l3.17,0c0.15,0.73,0.45,3.3-0.19,3.65l-0.68,0.48
		L77.2,9c-1.32-1.38-1.26,0.94-1.36-4.35c-0.02-0.89-0.33-3.34,0.21-3.98L77.02,0l-4.63,0.1c0.79,1.25,1.36-0.99,1.25,4.01l-3.22,0
		c0-0.78-0.11-1.92-0.04-2.65c0.14-1.64,0.66-0.39,1.18-1.38L67.1,0.17c0.16,0.58,0.31,0.11,0.81,0.61c0.57,0.59,0.43,5.6,0.41,6.65
		C68.29,9.44,67.78,8.06,67.2,9.29z"/>
	<path class="st3" d="M10.07,34.9c0.33-1.52,1.63-1.74,2.88-0.86c1.43,1,0.89,1.73,0.32,3.03C12.41,36.74,10.47,35.53,10.07,34.9z
		 M7.75,37.64c1.74-0.68,0.09-1.32,4.36,1.39c0.55,0.35,2.77,1.61,2.99,2.14c0.28,0.7-0.17,0.77,0.21,1.22
		c0.57-0.93,1.98-2.82,2.34-3.82c-1.46,0.46-0.79,0.97-3.26-0.63c-0.61-0.4-0.57-0.24-0.7-0.85l5.08-0.08
		c0.53-0.79,1.14-1.47,1.44-2.39c-1.56,0.43-3.63,0.46-5.34,0.35c0.5-3.3-1.89-4.24-3.88-2.35c-0.72,0.68-1.13,1.52-1.74,2.42
		C8.73,35.79,7.88,36.75,7.75,37.64z"/>
	<path class="st3" d="M105.69,8.16c1.63,0.05,2.22,1.18,1.47,2.62c-0.79,1.54-1.46,1.22-3.12,0.77L105.69,8.16z M99.11,13.82
		c0.1,0.72-0.21,0.2,1.66,1.18c0.83,0.43,1.35,0.8,2.31,1.04c-0.03-0.06-0.09-0.19-0.11-0.16c-0.02,0.03-0.12-0.17-0.2-0.3
		c-0.38-0.61-0.46-0.73,0.01-1.65c0.29-0.58,0.74-1.6,1.2-1.98c1.21,1.9-0.31,4.53,1.46,5.47c0.63,0.34,1.12,0.57,1.83,0.77
		c-0.63-1.52-0.76-3.55-0.95-5.27c1.4,0.06,2.35-0.07,2.86-1.09c0.69-1.39-0.18-2.46-0.89-3c-0.86-0.66-4.28-2.48-5.27-2.76
		c0.59,1.88,1.18,0.15-0.93,4.41c-0.38,0.76-0.74,1.45-1.11,2.24C100.48,13.79,100.45,14.17,99.11,13.82z"/>
	<path class="st3" d="M49.13,4.53c1.33-0.94,2.34-0.3,2.77,1.03c0.57,1.75-0.32,2.28-1.74,2.63C49.9,7.52,49.13,5.27,49.13,4.53z
		 M50.43,3.48l-4.76,1.56c0.04,0.03,0.12,0,0.14,0.07l1.09,0.3L47,6.02l0.45,0.82c0.12,0.32,0.22,0.71,0.33,1.06l1.31,4.03
		c0.23,1.07-0.23,1.1-0.75,1.57c0.73,0.1,1.47-0.27,2.13-0.48c0.69-0.23,1.61-0.4,2.15-0.85c-0.57-0.26-1.11,0.21-1.59-1.22
		c-0.25-0.73-0.54-1.57-0.67-2.35c0.82,0.17,3.54,2.44,3.96,3.08c0.88-0.17,2.35-0.45,2.91-1.11c-0.93-0.1-3.22-1.84-4.03-2.6
		c-0.03-0.03-0.08-0.09-0.11-0.11l-0.2-0.24c0.55-0.68,1.84-1.7,0.94-3.23C53.2,3.27,51.89,3.31,50.43,3.48z"/>
	<path class="st6" d="M46.19,47.13c0.74,0.63,0.26-0.18,0.68,0.81c-0.52,0.53-0.47,0.6-1.18,0.99c0.66,0.48,0.26,0.1,0.59,0.59
		c0.03-0.01,0.06-0.08,0.07-0.06c0.37,0.61-0.33,0.16,0.42-0.27l0.5-0.26l-0.21,1.01c0.01,0.08,0.07,0.13,0.09,0.19
		c0.02,0.06,0.08,0.12,0.12,0.18l0.62-0.61c0.44-0.38-0.79-0.31,0.76-0.38c0.03,0.06,0.06,0.09,0.07,0.2
		c0.03,0.49,0.3,0.05-0.17,1.28c0.91-0.01,0.33,0.13,1.03-0.89c0.04-0.05,0.07-0.09,0.11-0.14l0.23-0.3
		c0.03-0.04,0.09-0.1,0.11-0.15l0.61,0.34c0.33,0.14,0.19,0.16,0.65,0.19l5.18-3.44c-0.03-0.83-0.31,0.04,0.28-1.04l-1.88,0.59
		c-0.35-0.9,0.08-0.25-0.44-0.65l-0.84-0.34l0.26-0.36c0.58-0.91,0.49-0.21,0.53-1.41c-0.06,0.04-0.13,0.04-0.16,0.14
		c-0.01,0.04-1.07,1.22-2.6,1.24c0.74-1.72,0.27-0.65,0.96-0.92c0.04-0.02,0.1-0.01,0.14-0.03c0.57-0.27,0.16,0.29,0.47-0.43
		c-0.33-0.68,0.19-0.15-0.39-0.5c-0.09-0.05-0.45-0.12-0.51-0.12C49.95,44.15,48.29,45.21,46.19,47.13z"/>
	<path class="st3" d="M95.24,3.96c4.21-1.5,2.47,7.39-0.21,8.15c-2.5,0.72-2.92-1.94-2.46-3.86C92.98,6.56,93.88,4.44,95.24,3.96z
		 M93.94,3.39c-6.21,1.66-3.79,10.79,2.47,9.31c2.08-0.5,4.06-3.16,3.33-5.98C99.2,4.62,96.72,2.65,93.94,3.39z"/>
	<path class="st3" d="M133.35,41.02c0.23-0.93-1.2,0.22-2.79-0.87c-0.58-0.4-1.4-1.23-1.43-2.3c0.59-0.47,2.34-1.67,3.13-1.96
		c1.06,2.39-0.31,1.89-0.52,3.07l0.64-0.12c0.29-0.49,1.4-1.17,2.03-1.31c0.55-0.76,1.2-0.8,0.98-1.04
		c-0.67-0.38-1.54,0.99-2.73-0.82l2.96-1.92c0.54,0.38,1.12,1.11,1.32,2c0.3,1.32-0.42,1.66-0.84,2.58
		c0.89-0.29,1.82-0.86,2.26-1.47c-0.45-0.94-1.2-1.63-1.56-2.69c-0.93-0.57-1.62-3.17-2.74-3.63l0.2,1.32l-5.43,3.55
		c-1.3,0.85-1.1,0.32-2.09-0.11c0.2,0.78,3.5,5.67,4.17,6.63L133.35,41.02z"/>
	<path class="st3" d="M37.67,16.09c-0.9,0.19-0.28-0.27-0.45,0.61c-0.07,0.37,0.22,1.26-0.47,2.35c-0.46,0.72-1.19,1.36-2.14,1.42
		c-0.6-0.53-1.8-2.2-2.14-3c1.95-1.2,1.85,0.1,3.09,0.4c-0.18-0.57-0.46-0.87-0.78-1.32c-0.44-0.59-0.57-0.71-0.66-1.33
		c-0.41-0.15-0.04,0.05-0.36-0.22c-0.25-0.22,0-0.01-0.27-0.32c-0.34-0.38-0.03-0.3-0.63-0.51c0.31,1.56,0.6,2.16-0.78,2.91
		c-0.55-0.87-1.75-2.03-1.85-3.21c0.44-0.27,1.49-1.06,2.23-1.16c1.37-0.19,1.39,0.56,2.43,0.81c-0.49-0.88-1-1.37-1.38-2.23
		c-0.94,0.2-4.63,2.95-5.71,3.74l-0.75,0.78c1.5-0.35,1.34-0.22,2.08,0.85c0.51,0.75,0.92,1.33,1.47,2.09
		c3.07,4.28,1.82,2.63,1.52,4.21c0.75-0.26,5.76-3.82,6.41-4.47C38.3,17.67,37.72,16.93,37.67,16.09z"/>
	<path class="st3" d="M23.69,26.95l0.41,0.69c0.57,1.81-1,3.82-1.73,3.83c-0.25,0-2.44-1.67-2.83-2.58c1.37-0.71,1.3-1,2.83-0.13
		c0.25-0.18,0.23,0.41,0.18-0.46l-0.67-0.4c-0.56-0.48-1.62-1.29-1.97-1.88c-0.17-0.08-0.55-0.21-0.8-0.32
		c0.57,1.58,1.11,1.45,0.11,3.07c-0.69-0.32-2.28-1.77-2.7-2.35c1.28-3.21,3.91-1.79,4.37-1.74c-0.41-0.54-1.52-1.55-2.07-1.8
		c-0.64,0.63-4.8,5.04-4.94,5.89c1.38-0.49,0.99-1.06,4.15,2c3.28,3.18,2.81,1.62,2.42,3.7c0.49-0.17,4.56-4.99,5.22-5.73
		c-0.42-0.91-1-1.3-1.45-2.22C23.67,26.71,23.98,26.45,23.69,26.95z"/>
	<path class="st3" d="M121.37,29.5c1.22,0.74,2.07,2.82,3.28,3.31c-0.55-1.45-1.01-1.17,0.29-2.27c0.73-0.62,1.19-1.22,2.05-1.59
		c0.89,1.93,0.15,1.51-0.31,3.01c0.53-0.23,0.72-0.41,1.12-0.74c0.7-0.6,0.53-0.66,1.08-0.78l0.3-0.38c0.55-0.6,0.57-0.3,1-1.18
		c-1.7,0.54-1.42,0.75-2.91-0.04c0.25-0.79,1.99-2.28,2.82-2.46c0.4,0.28,1.2,1.15,1.42,1.78c0.31,0.88,0.06,1.7-0.69,2.27
		l0.42,0.31c0.54-0.54,1.2-1.19,1.81-1.56c-0.2-0.6-1.7-2.27-2.17-2.79l-2.27-2.79c-0.54-0.22-0.02-0.06-0.65-0.16
		c0.67,1.4-0.42,2.05-2.34,3.63c-0.63,0.52-1.17,1.01-1.81,1.55c-0.51,0.43-1.29,1.46-1.98,0.51
		C120.99,29.09,121.59,29.02,121.37,29.5z"/>
	<path class="st4" d="M87.13,7.41l0.58-3.82C87,4.13,87.14,4.53,86.67,4.91c-0.38,0.31-0.93,0.35-1.59,0.22l0.65-3.5
		c3.21-0.06,3.21,1.42,3.58,2.85c0.49-0.55,0.61-1.91,0.58-2.71l-7.41-1.31c0.24,0.58-0.01,0.17,0.37,0.45
		c0.24,0.18,0.19,0.04,0.56,0.34c0.05,0.95-0.74,5.3-1.02,6.69c-0.28,1.39-0.42,0.79-1.41,1.24c0.39,0.4,3.91,0.93,4.11,0.93
		l-0.62-0.69C84.41,8.35,84.75,6.7,85,5.67c1.29,0.23,1.63,0.92,1.63,2.32C87.24,7.78,86.84,8.21,87.13,7.41z"/>
	<path class="st4" d="M28.49,20.66c-2.06-0.1-3.28,0.9-5.19,0.59c-0.76-0.97-0.89-2.02,0.43-2.58c1.33-0.57,2.13,0.02,3.27,0.44
		l0.04-0.5l-1.88-1.49c-0.88,1.42-2.66,0.92-3.22,3.12c-0.54,2.1,1.18,3.48,3.37,3.19c0.27-0.04,5.02-1.74,4.22,1.26
		c-0.72,2.67-4.59,0.58-4.75,0.57c0.38,0.95,1.33,1.61,1.87,2.58c1.02-0.58-0.18-0.14,0.77-0.91c0.23-0.19,0.76-0.36,1.06-0.53
		c0.62-0.35,1.4-1.06,1.7-1.66C31.28,22.6,29.93,21.39,28.49,20.66z"/>
	<path class="st3" d="M110.54,19.9c0.16,0.55,0.08,0.34,0.57,0.76l2.33,1.82c0.8,0.65,2.47,2.04,3.25,2.35
		c1.22-1.52,1.73-1.14,2.02-2.2c-0.98,0.23-1.79,0.87-3.04,0.65c-1-0.18-1.79-0.88-2.09-1.63l3.96-5.24
		c0.74-0.88,0.91-0.8,2.01-0.38c-0.09-0.51-0.06-0.38-0.62-0.81l-2.97-2.13c0.36,1.62,1.21,0.24-1.88,4.2
		c-0.5,0.64-0.94,1.18-1.47,1.89C111.9,20.1,111.91,20.36,110.54,19.9z"/>
	<path class="st4" d="M39.86,10.84l2.4,1.98c0.01-0.03,0.05,0.08,0.08,0.16l-2.16,1.07L39.86,10.84z M47.25,14.21
		c0.19-0.19,0.1-0.31,0.27-0.56c-1.66,0.03-4.86-3.3-6.22-4.41c-1.14-0.93-1.24-1.41-2.2-1.37l0.65,7.66
		c0.13,1.6,0.03,1.25-0.4,2.41c0.85-0.18,2.01-0.82,2.42-1.22c-0.04-0.02-0.1-0.06-0.12-0.02c0,0-0.76,0.08-1.05-0.21
		c-0.38-0.36-0.31-1.24-0.31-1.76c1.4-1.18,2.97-2.05,4.02,0c-0.25,0.65-0.28,0.44-0.7,0.93C44.72,15.79,46.08,14.33,47.25,14.21z"
		/>
	<path class="st4" d="M59.92,1.03c-0.29,0.26-0.57,0.37-0.85,0.59c-0.3,0.23-0.2,0.19-0.43,0.36c-0.47,0.33-0.12,0.15-0.43,0.23
		C57.57,3.52,57,4.09,57.19,5.99C57.37,7.7,58.21,8.3,58.7,9.3c0.47,0.11-0.02-0.04,0.39,0.15c0.26,0.12,0.04,0.02,0.38,0.19
		c3.85,1.96,6.09-1.28,6.39-1.43l0.18-0.77c-1.32,0.07-0.12,0.33-1.71,1.43c-4.79,3.27-6.68-7-3.12-7.65
		c2.1-0.39,2.79,1.66,3.92,2.1l-0.41-2.46c-0.3-1.07,0.35,0.98-0.11-0.31l-0.55,0.16c-0.24,0.17-0.01,0.11-0.41,0.2
		C62.79,1.08,62.85,0.38,59.92,1.03z"/>
	<path class="st3" d="M121.07,29.03c-0.67-2.19-1.23-0.63,2.01-4.3c0.46-0.52,1.28-1.29,1.75-1.81c1.4-1.56,0.97-0.5,2.18-0.54
		c-0.43-0.57-1.4-1.28-1.83-2.03c-0.95-0.34-0.58-0.65-1.68-1.14c0.56,1.44,0.86,1.07-0.33,2.25l-3.33,3.59
		c-0.97,1.15-0.8,1.03-2.27,0.54C117.86,26.35,120.31,28.45,121.07,29.03z"/>
	<path class="st2" d="M96.62,56.45c-0.01,0.01,0.01,0.62-1.13,0.42c-1.07-0.19-0.62-0.49-1.39-0.81c-0.19,1.47,0.1,0.03,0.39,1.58
		l-1.18,0.2c0.08,0.38,0.85,1.09,1.22,1.37c0.7,0.52,0.67,0.17,1.05-0.14c0.04-0.03,0.11-0.09,0.14-0.11
		c0.04-0.03,0.1-0.09,0.15-0.12l0.78,0.7c0.39-0.62,0.28-0.36,0.41-1.09c0.95-0.18,0.28-0.15,1.19,0.12
		c-0.3-0.39-0.21-0.46-0.79-0.72c0.03-2.1,0.19-1.2-0.33-1.59c-0.21-0.15-0.53-0.54-0.54-0.54c-0.79-0.54-0.7,0.08-1.02-0.46
		c-0.39-0.67,0.3-0.9-0.68-1.36c-0.31,0.44-0.35-0.62-0.35,1c0,0.71,0.51,1.24,1.14,1.42L96.62,56.45z"/>
	<path class="st7" d="M93.41,72.82c0.03,0.05,0.07,0.11,0.1,0.15c0.02,0.04,0.06,0.1,0.09,0.15c0.03,0.04,0.06,0.1,0.09,0.14
		l0.26,1.03c0.22,0.44-0.19,0.4,0.43,0.05c0.12-0.07,0.53-0.42,0.68-0.54c0.43-0.35,0.84-0.68,1.22-0.95l-0.79-0.46
		c-0.27-0.09-0.4-0.14-0.68-0.3l0.3,0.78C94.37,73.03,94.05,72.99,93.41,72.82z"/>
</g>
</svg>
